Lora-Italic.ufo
<glyph name="parenright" format="2">
  <advance width="298"/>
  <unicode hex="0029"/>
  <outline>
    <contour>
      <point x="60" y="760" type="curve"/>
      <point x="34" y="737" type="line"/>
      <point x="130" y="600"/>
      <point x="175" y="438"/>
      <point x="165" y="250" type="curve" smooth="yes"/>
      <point x="155" y="62"/>
      <point x="93" y="-111"/>
      <point x="-16" y="-248" type="curve"/>
      <point x="7" y="-271" type="line"/>
      <point x="110" y="-180"/>
      <point x="249" y="28"/>
      <point x="261" y="250" type="curve" smooth="yes"/>
      <point x="271" y="472"/>
      <point x="155" y="669"/>
    </contour>
  </outline>
</glyph>
<glyph name="asterisk" format="2">
  <advance width="513"/>
  <unicode hex="002A"/>
  <outline>
    <contour>
      <point x="281" y="716" type="curve" smooth="yes"/>
      <point x="247" y="716"/>
      <point x="241" y="675"/>
      <point x="243" y="644" type="curve" smooth="yes"/>
      <point x="246" y="599"/>
      <point x="249" y="547"/>
      <point x="256" y="508" type="curve"/>
      <point x="223" y="526"/>
      <point x="178" y="549"/>
      <point x="138" y="568" type="curve" smooth="yes"/>
      <point x="109" y="583"/>
      <point x="69" y="590"/>
      <point x="56" y="559" type="curve"/>
      <point x="42" y="526"/>
      <point x="78" y="510"/>
      <point x="110" y="503" type="curve"/>
      <point x="152" y="496"/>
      <point x="204" y="488"/>
      <point x="245" y="480" type="curve"/>
      <point x="211" y="452"/>
      <point x="178" y="419"/>
      <point x="146" y="386" type="curve" smooth="yes"/>
      <point x="123" y="362"/>
      <point x="100" y="321"/>
      <point x="125" y="303" type="curve" smooth="yes"/>
      <point x="150" y="286"/>
      <point x="180" y="311"/>
      <point x="197" y="338" type="curve"/>
      <point x="220" y="377"/>
      <point x="249" y="425"/>
      <point x="269" y="463" type="curve"/>
      <point x="284" y="425"/>
      <point x="308" y="377"/>
      <point x="327" y="338" type="curve"/>
      <point x="343" y="311"/>
      <point x="366" y="283"/>
      <point x="394" y="302" type="curve" smooth="yes"/>
      <point x="422" y="321"/>
      <point x="403" y="363"/>
      <point x="383" y="386" type="curve" smooth="yes"/>
      <point x="353" y="419"/>
      <point x="320" y="455"/>
      <point x="292" y="480" type="curve"/>
      <point x="334" y="485"/>
      <point x="386" y="495"/>
      <point x="430" y="503" type="curve" smooth="yes"/>
      <point x="463" y="510"/>
      <point x="499" y="527"/>
      <point x="490" y="560" type="curve" smooth="yes"/>
      <point x="481" y="591"/>
      <point x="438" y="583"/>
      <point x="408" y="568" type="curve" smooth="yes"/>
      <point x="366" y="548"/>
      <point x="320" y="528"/>
      <point x="284" y="508" type="curve"/>
      <point x="295" y="547"/>
      <point x="303" y="599"/>
      <point x="311" y="644" type="curve" smooth="yes"/>
      <point x="316" y="675"/>
      <point x="315" y="716"/>
    </contour>
  </outline>
</glyph>
<glyph name="period" format="2">
  <advance width="232"/>
  <unicode hex="002E"/>
  <outline>
    <contour>
      <point x="105" y="110" type="curve" smooth="yes"/>
      <point x="74" y="110"/>
      <point x="45" y="82"/>
      <point x="43" y="47" type="curve" smooth="yes"/>
      <point x="42" y="11"/>
      <point x="66" y="-16"/>
      <point x="97" y="-16" type="curve" smooth="yes"/>
      <point x="127" y="-16"/>
      <point x="156" y="11"/>
      <point x="157" y="47" type="curve" smooth="yes"/>
      <point x="159" y="82"/>
      <point x="137" y="110"/>
    </contour>
  </outline>
</glyph>
<glyph name="B" format="2">
  <advance width="619"/>
  <unicode hex="0042"/>
  <outline>
    <contour>
      <point x="300" y="702" type="curve" smooth="yes"/>
      <point x="220" y="702"/>
      <point x="150" y="700"/>
      <point x="77" y="700" type="curve"/>
      <point x="74" y="656" type="line"/>
      <point x="98" y="657"/>
      <point x="123" y="659"/>
      <point x="147" y="660" type="curve"/>
      <point x="144" y="643"/>
      <point x="141" y="617"/>
      <point x="140" y="581" type="curve" smooth="yes"/>
      <point x="118" y="161" type="line"/>
      <point x="114" y="86"/>
      <point x="117" y="35"/>
      <point x="42" y="33" type="curve"/>
      <point x="40" y="0" type="line"/>
      <point x="329" y="0" type="line" smooth="yes"/>
      <point x="464" y="0"/>
      <point x="566" y="73"/>
      <point x="572" y="196" type="curve" smooth="yes"/>
      <point x="578" y="299"/>
      <point x="510" y="374"/>
      <point x="363" y="374" type="curve"/>
      <point x="363" y="376" type="line"/>
      <point x="474" y="396"/>
      <point x="529" y="466"/>
      <point x="533" y="531" type="curve" smooth="yes"/>
      <point x="541" y="649"/>
      <point x="455" y="702"/>
    </contour>
    <contour>
      <point x="314" y="347" type="curve" smooth="yes"/>
      <point x="405" y="347"/>
      <point x="484" y="308"/>
      <point x="478" y="190" type="curve" smooth="yes"/>
      <point x="473" y="90"/>
      <point x="401" y="39"/>
      <point x="298" y="39" type="curve" smooth="yes"/>
      <point x="285" y="39"/>
      <point x="223" y="38"/>
      <point x="192" y="41" type="curve"/>
      <point x="195" y="58"/>
      <point x="197" y="83"/>
      <point x="199" y="119" type="curve" smooth="yes"/>
      <point x="211" y="344" type="line"/>
      <point x="243" y="346"/>
      <point x="274" y="347"/>
    </contour>
    <contour>
      <point x="303" y="666" type="curve" smooth="yes"/>
      <point x="369" y="666"/>
      <point x="449" y="644"/>
      <point x="445" y="536" type="curve" smooth="yes"/>
      <point x="442" y="462"/>
      <point x="400" y="390"/>
      <point x="286" y="385" type="curve" smooth="yes"/>
      <point x="264" y="384"/>
      <point x="238" y="383"/>
      <point x="213" y="383" type="curve"/>
      <point x="223" y="569" type="line" smooth="yes"/>
      <point x="227" y="642"/>
      <point x="238" y="666"/>
    </contour>
  </outline>
</glyph>
<glyph name="E" format="2">
  <advance width="619"/>
  <unicode hex="0045"/>
  <anchor x="332" y="0" name="bottom"/>
  <anchor x="544" y="5" name="ogonek"/>
  <anchor x="363" y="702" name="top"/>
  <anchor x="33" y="700" name="topleft"/>
  <outline>
    <contour>
      <point x="555" y="700" type="line"/>
      <point x="78" y="700" type="line"/>
      <point x="76" y="656" type="line"/>
      <point x="100" y="657"/>
      <point x="125" y="659"/>
      <point x="149" y="660" type="curve"/>
      <point x="146" y="640"/>
      <point x="143" y="615"/>
      <point x="142" y="588" type="curve" smooth="yes"/>
      <point x="118" y="156" type="line" smooth="yes"/>
      <point x="115" y="85"/>
      <point x="118" y="36"/>
      <point x="43" y="33" type="curve"/>
      <point x="41" y="0" type="line"/>
      <point x="553" y="0" type="line"/>
      <point x="569" y="195" type="line"/>
      <point x="535" y="195" type="line"/>
      <point x="529" y="76"/>
      <point x="470" y="41"/>
      <point x="383" y="40" type="curve" smooth="yes"/>
      <point x="192" y="37" type="line"/>
      <point x="195" y="54"/>
      <point x="197" y="79"/>
      <point x="199" y="115" type="curve" smooth="yes"/>
      <point x="211" y="344" type="line"/>
      <point x="284" y="347" type="line" smooth="yes"/>
      <point x="370" y="350"/>
      <point x="403" y="347"/>
      <point x="399" y="259" type="curve"/>
      <point x="432" y="259" type="line"/>
      <point x="443" y="477" type="line"/>
      <point x="410" y="477" type="line"/>
      <point x="406" y="389"/>
      <point x="369" y="382"/>
      <point x="285" y="383" type="curve" smooth="yes"/>
      <point x="213" y="384" type="line"/>
      <point x="222" y="544" type="line" smooth="yes"/>
      <point x="227" y="625"/>
      <point x="229" y="661"/>
      <point x="304" y="663" type="curve" smooth="yes"/>
      <point x="390" y="665" type="line" smooth="yes"/>
      <point x="465" y="667"/>
      <point x="524" y="643"/>
      <point x="518" y="525" type="curve"/>
      <point x="551" y="525" type="line"/>
    </contour>
  </outline>
</glyph>
<glyph name="H" format="2">
  <advance width="773"/>
  <unicode hex="0048"/>
  <anchor x="372" y="0" name="bottom"/>
  <anchor x="395" y="351" name="center"/>
  <anchor x="410" y="702" name="top"/>
  <outline>
    <contour>
      <point x="740" y="700" type="line"/>
      <point x="519" y="700" type="line"/>
      <point x="517" y="656" type="line"/>
      <point x="541" y="657"/>
      <point x="565" y="659"/>
      <point x="589" y="660" type="curve"/>
      <point x="586" y="640"/>
      <point x="583" y="615"/>
      <point x="582" y="588" type="curve" smooth="yes"/>
      <point x="571" y="378" type="line"/>
      <point x="212" y="378" type="line"/>
      <point x="222" y="556" type="line" smooth="yes"/>
      <point x="226" y="627"/>
      <point x="232" y="664"/>
      <point x="297" y="667" type="curve"/>
      <point x="299" y="700" type="line"/>
      <point x="78" y="700" type="line"/>
      <point x="76" y="656" type="line"/>
      <point x="100" y="657"/>
      <point x="124" y="659"/>
      <point x="148" y="660" type="curve"/>
      <point x="145" y="640"/>
      <point x="143" y="615"/>
      <point x="141" y="588" type="curve" smooth="yes"/>
      <point x="118" y="156" type="line" smooth="yes"/>
      <point x="114" y="85"/>
      <point x="118" y="36"/>
      <point x="43" y="33" type="curve"/>
      <point x="41" y="0" type="line"/>
      <point x="262" y="0" type="line"/>
      <point x="264" y="44" type="line"/>
      <point x="240" y="43"/>
      <point x="216" y="41"/>
      <point x="192" y="40" type="curve"/>
      <point x="195" y="57"/>
      <point x="197" y="83"/>
      <point x="199" y="119" type="curve" smooth="yes"/>
      <point x="210" y="334" type="line"/>
      <point x="569" y="338" type="line"/>
      <point x="559" y="156" type="line"/>
      <point x="556" y="85"/>
      <point x="559" y="36"/>
      <point x="484" y="33" type="curve"/>
      <point x="482" y="0" type="line"/>
      <point x="703" y="0" type="line"/>
      <point x="705" y="44" type="line"/>
      <point x="681" y="43"/>
      <point x="657" y="41"/>
      <point x="633" y="40" type="curve"/>
      <point x="636" y="57"/>
      <point x="638" y="83"/>
      <point x="640" y="119" type="curve" smooth="yes"/>
      <point x="663" y="557" type="line" smooth="yes"/>
      <point x="667" y="628"/>
      <point x="673" y="664"/>
      <point x="738" y="667" type="curve"/>
    </contour>
  </outline>
</glyph>
<glyph name="R" format="2">
  <advance width="625"/>
  <unicode hex="0052"/>
  <anchor x="312" y="0" name="bottom"/>
  <anchor x="323" y="702" name="top"/>
  <outline>
    <contour>
      <point x="303" y="702" type="curve" smooth="yes"/>
      <point x="226" y="703"/>
      <point x="153" y="701"/>
      <point x="78" y="700" type="curve"/>
      <point x="75" y="656" type="line"/>
      <point x="99" y="657"/>
      <point x="124" y="659"/>
      <point x="148" y="660" type="curve"/>
      <point x="145" y="640"/>
      <point x="142" y="615"/>
      <point x="141" y="588" type="curve"/>
      <point x="118" y="156" type="line"/>
      <point x="115" y="85"/>
      <point x="118" y="36"/>
      <point x="43" y="33" type="curve"/>
      <point x="41" y="0" type="line"/>
      <point x="262" y="0" type="line"/>
      <point x="264" y="44" type="line"/>
      <point x="240" y="43"/>
      <point x="216" y="41"/>
      <point x="192" y="40" type="curve"/>
      <point x="195" y="57"/>
      <point x="197" y="83"/>
      <point x="199" y="119" type="curve" smooth="yes"/>
      <point x="209" y="313" type="line"/>
      <point x="215" y="313"/>
      <point x="263" y="311"/>
      <point x="282" y="313" type="curve"/>
      <point x="308" y="287"/>
      <point x="328" y="247"/>
      <point x="344" y="218" type="curve" smooth="yes"/>
      <point x="405" y="111" type="line"/>
      <point x="431" y="67"/>
      <point x="458" y="25"/>
      <point x="488" y="0" type="curve"/>
      <point x="610" y="0" type="line"/>
      <point x="612" y="33" type="line"/>
      <point x="549" y="33"/>
      <point x="526" y="74"/>
      <point x="495" y="128" type="curve" smooth="yes"/>
      <point x="433" y="235" type="line" smooth="yes"/>
      <point x="400" y="291"/>
      <point x="410" y="274"/>
      <point x="367" y="322" type="curve"/>
      <point x="520" y="353"/>
      <point x="557" y="443"/>
      <point x="561" y="519" type="curve"/>
      <point x="567" y="625"/>
      <point x="496" y="699"/>
    </contour>
    <contour>
      <point x="297" y="664" type="curve" smooth="yes"/>
      <point x="420" y="664"/>
      <point x="473" y="612"/>
      <point x="468" y="511" type="curve" smooth="yes"/>
      <point x="462" y="396"/>
      <point x="383" y="354"/>
      <point x="273" y="350" type="curve" smooth="yes"/>
      <point x="250" y="349"/>
      <point x="232" y="350"/>
      <point x="211" y="352" type="curve"/>
      <point x="222" y="549" type="line"/>
      <point x="225" y="620"/>
      <point x="227" y="664"/>
    </contour>
  </outline>
</glyph>
<glyph name="U" format="2">
  <advance width="744"/>
  <unicode hex="0055"/>
  <anchor x="359" y="0" name="bottom"/>
  <anchor x="480" y="5" name="ogonek"/>
  <anchor x="408" y="702" name="top"/>
  <anchor x="743" y="700" name="topright"/>
  <outline>
    <contour>
      <point x="743" y="700" type="line"/>
      <point x="556" y="700" type="line"/>
      <point x="554" y="656" type="line"/>
      <point x="578" y="657"/>
      <point x="602" y="659"/>
      <point x="626" y="660" type="curve"/>
      <point x="623" y="640"/>
      <point x="621" y="615"/>
      <point x="619" y="588" type="curve" smooth="yes"/>
      <point x="601" y="306" type="line" smooth="yes"/>
      <point x="590" y="150"/>
      <point x="525" y="41"/>
      <point x="381" y="41" type="curve" smooth="yes"/>
      <point x="202" y="41"/>
      <point x="181" y="186"/>
      <point x="189" y="335" type="curve" smooth="yes"/>
      <point x="202" y="588" type="line" smooth="yes"/>
      <point x="204" y="615"/>
      <point x="208" y="667"/>
      <point x="276" y="667" type="curve"/>
      <point x="278" y="700" type="line"/>
      <point x="56" y="700" type="line"/>
      <point x="54" y="657" type="line"/>
      <point x="78" y="658"/>
      <point x="102" y="659"/>
      <point x="126" y="660" type="curve"/>
      <point x="122" y="634"/>
      <point x="120" y="614"/>
      <point x="118" y="579" type="curve" smooth="yes"/>
      <point x="105" y="340" type="line" smooth="yes"/>
      <point x="92" y="93"/>
      <point x="152" y="-16"/>
      <point x="366" y="-16" type="curve" smooth="yes"/>
      <point x="566" y="-16"/>
      <point x="642" y="137"/>
      <point x="652" y="311" type="curve" smooth="yes"/>
      <point x="666" y="544" type="line"/>
      <point x="670" y="615"/>
      <point x="666" y="664"/>
      <point x="742" y="667" type="curve"/>
    </contour>
  </outline>
</glyph>
<glyph name="underscore" format="2">
  <advance width="710"/>
  <unicode hex="005F"/>
  <outline>
    <contour>
      <point x="27" y="-50" type="line"/>
      <point x="24" y="-106" type="line"/>
      <point x="639" y="-106" type="line"/>
      <point x="642" y="-54" type="line"/>
    </contour>
  </outline>
</glyph>
<glyph name="p" format="2">
  <advance width="571"/>
  <unicode hex="0070"/>
  <outline>
    <contour>
      <point x="42" y="-255" type="line"/>
      <point x="231" y="-255" type="line"/>
      <point x="231" y="-214" type="line"/>
      <point x="210" y="-215"/>
      <point x="189" y="-216"/>
      <point x="168" y="-217" type="curve"/>
      <point x="174" y="-196"/>
      <point x="174" y="-161"/>
      <point x="184" y="-8" type="curve"/>
      <point x="199" y="-10"/>
      <point x="214" y="-11"/>
      <point x="231" y="-11" type="curve" smooth="yes"/>
      <point x="424" y="-11"/>
      <point x="526" y="123"/>
      <point x="526" y="317" type="curve" smooth="yes"/>
      <point x="526" y="422"/>
      <point x="483" y="511"/>
      <point x="391" y="511" type="curve" smooth="yes"/>
      <point x="332" y="511"/>
      <point x="268" y="476"/>
      <point x="213" y="292" type="curve"/>
      <point x="210" y="292" type="line"/>
      <point x="216" y="322"/>
      <point x="224" y="366"/>
      <point x="224" y="406" type="curve" smooth="yes"/>
      <point x="224" y="462"/>
      <point x="208" y="511"/>
      <point x="148" y="511" type="curve" smooth="yes"/>
      <point x="68" y="511"/>
      <point x="27" y="417"/>
      <point x="18" y="370" type="curve"/>
      <point x="47" y="364" type="line"/>
      <point x="67" y="435"/>
      <point x="97" y="461"/>
      <point x="119" y="461" type="curve" smooth="yes"/>
      <point x="145" y="461"/>
      <point x="146" y="434"/>
      <point x="146" y="408" type="curve" smooth="yes"/>
      <point x="146" y="357"/>
      <point x="121" y="145"/>
      <point x="103" y="-85" type="curve" smooth="yes"/>
      <point x="97" y="-163"/>
      <point x="98" y="-225"/>
      <point x="42" y="-225" type="curve"/>
    </contour>
    <contour>
      <point x="248" y="23" type="curve" smooth="yes"/>
      <point x="226" y="23"/>
      <point x="208" y="28"/>
      <point x="187" y="35" type="curve"/>
      <point x="190" y="70"/>
      <point x="193" y="100"/>
      <point x="198" y="130" type="curve" smooth="yes"/>
      <point x="223" y="292"/>
      <point x="297" y="464"/>
      <point x="370" y="464" type="curve" smooth="yes"/>
      <point x="425" y="464"/>
      <point x="440" y="391"/>
      <point x="440" y="299" type="curve" smooth="yes"/>
      <point x="440" y="178"/>
      <point x="389" y="23"/>
    </contour>
  </outline>
</glyph>
<glyph name="r" format="2">
  <advance width="455"/>
  <unicode hex="0072"/>
  <anchor x="173" y="0" name="bottom"/>
  <anchor x="254" y="512" name="top"/>
  <outline>
    <contour>
      <point x="101" y="0" type="curve"/>
      <point x="184" y="0" type="line"/>
      <point x="183" y="17"/>
      <point x="182" y="23"/>
      <point x="182" y="43" type="curve" smooth="yes"/>
      <point x="182" y="205"/>
      <point x="272" y="468"/>
      <point x="365" y="447" type="curve"/>
      <point x="368" y="420"/>
      <point x="387" y="405"/>
      <point x="411" y="405" type="curve" smooth="yes"/>
      <point x="439" y="405"/>
      <point x="457" y="429"/>
      <point x="457" y="453" type="curve" smooth="yes"/>
      <point x="457" y="489"/>
      <point x="427" y="511"/>
      <point x="387" y="511" type="curve" smooth="yes"/>
      <point x="322" y="511"/>
      <point x="256" y="466"/>
      <point x="198" y="293" type="curve"/>
      <point x="195" y="293" type="line"/>
      <point x="202" y="331"/>
      <point x="208" y="367"/>
      <point x="210" y="397" type="curve" smooth="yes"/>
      <point x="213" y="466"/>
      <point x="197" y="511"/>
      <point x="137" y="511" type="curve" smooth="yes"/>
      <point x="57" y="511"/>
      <point x="16" y="417"/>
      <point x="7" y="370" type="curve"/>
      <point x="35" y="364" type="line"/>
      <point x="55" y="435"/>
      <point x="86" y="461"/>
      <point x="108" y="461" type="curve" smooth="yes"/>
      <point x="136" y="461"/>
      <point x="136" y="430"/>
      <point x="135" y="403" type="curve" smooth="yes"/>
      <point x="134" y="382"/>
      <point x="130" y="361"/>
      <point x="116" y="231" type="curve" smooth="yes"/>
      <point x="102" y="105"/>
      <point x="100" y="60"/>
      <point x="100" y="26" type="curve" smooth="yes"/>
      <point x="100" y="15"/>
      <point x="100" y="9"/>
    </contour>
  </outline>
</glyph>
<glyph name="t" format="2">
  <advance width="364"/>
  <unicode hex="0074"/>
  <anchor x="199" y="0" name="bottom"/>
  <anchor x="155" y="286" name="center"/>
  <outline>
    <contour>
      <point x="217" y="641" type="line"/>
      <point x="179" y="641" type="line"/>
      <point x="153" y="551"/>
      <point x="117" y="500"/>
      <point x="25" y="500" type="curve"/>
      <point x="22" y="458" type="line"/>
      <point x="111" y="459" type="line"/>
      <point x="94" y="315"/>
      <point x="85" y="182"/>
      <point x="85" y="107" type="curve" smooth="yes"/>
      <point x="85" y="44"/>
      <point x="111" y="-11"/>
      <point x="189" y="-11" type="curve" smooth="yes"/>
      <point x="253" y="-11"/>
      <point x="294" y="25"/>
      <point x="333" y="93" type="curve"/>
      <point x="307" y="110" type="line"/>
      <point x="269" y="46"/>
      <point x="232" y="40"/>
      <point x="213" y="40" type="curve" smooth="yes"/>
      <point x="169" y="40"/>
      <point x="166" y="88"/>
      <point x="166" y="127" type="curve" smooth="yes"/>
      <point x="166" y="216"/>
      <point x="183" y="348"/>
      <point x="195" y="460" type="curve"/>
      <point x="355" y="462" type="line"/>
      <point x="358" y="500" type="line"/>
      <point x="199" y="500" type="line"/>
    </contour>
  </outline>
</glyph>
<glyph name="currency" format="2">
  <advance width="555"/>
  <unicode hex="00A4"/>
  <outline>
    <contour>
      <point x="95" y="40" type="line"/>
      <point x="150" y="105" type="line"/>
      <point x="179" y="82"/>
      <point x="216" y="67"/>
      <point x="264" y="67" type="curve" smooth="yes"/>
      <point x="312" y="67"/>
      <point x="352" y="82"/>
      <point x="382" y="105" type="curve"/>
      <point x="432" y="40" type="line"/>
      <point x="472" y="72" type="line"/>
      <point x="416" y="140" type="line"/>
      <point x="441" y="172"/>
      <point x="455" y="213"/>
      <point x="458" y="254" type="curve"/>
      <point x="459" y="296"/>
      <point x="448" y="339"/>
      <point x="425" y="375" type="curve"/>
      <point x="490" y="444" type="line"/>
      <point x="453" y="477" type="line"/>
      <point x="395" y="409" type="line"/>
      <point x="367" y="433"/>
      <point x="330" y="448"/>
      <point x="285" y="448" type="curve" smooth="yes"/>
      <point x="239" y="448"/>
      <point x="200" y="433"/>
      <point x="170" y="409" type="curve"/>
      <point x="120" y="477" type="line"/>
      <point x="79" y="444" type="line"/>
      <point x="136" y="375" type="line"/>
      <point x="109" y="340"/>
      <point x="93" y="296"/>
      <point x="91" y="254" type="curve" smooth="yes"/>
      <point x="89" y="212"/>
      <point x="99" y="172"/>
      <point x="120" y="139" type="curve"/>
      <point x="58" y="72" type="line"/>
    </contour>
    <contour>
      <point x="267" y="106" type="curve" smooth="yes"/>
      <point x="188" y="106"/>
      <point x="171" y="207"/>
      <point x="175" y="271" type="curve" smooth="yes"/>
      <point x="177" y="321"/>
      <point x="208" y="413"/>
      <point x="283" y="413" type="curve" smooth="yes"/>
      <point x="358" y="413"/>
      <point x="378" y="321"/>
      <point x="376" y="271" type="curve" smooth="yes"/>
      <point x="373" y="207"/>
      <point x="346" y="106"/>
    </contour>
  </outline>
</glyph>
<glyph name="brokenbar" format="2">
  <advance width="261"/>
  <unicode hex="00A6"/>
  <outline>
    <contour>
      <point x="188" y="760" type="line"/>
      <point x="118" y="760" type="line"/>
      <point x="102" y="388" type="line"/>
      <point x="165" y="388" type="line"/>
    </contour>
    <contour>
      <point x="154" y="101" type="line"/>
      <point x="84" y="101" type="line"/>
      <point x="68" y="-271" type="line"/>
      <point x="131" y="-271" type="line"/>
    </contour>
  </outline>
</glyph>
<glyph name="ordfeminine" format="2">
  <advance width="402"/>
  <unicode hex="00AA"/>
  <outline>
    <contour>
      <point x="245" y="716" type="curve" smooth="yes"/>
      <point x="121" y="716"/>
      <point x="64" y="609"/>
      <point x="64" y="490" type="curve" smooth="yes"/>
      <point x="64" y="411"/>
      <point x="94" y="380"/>
      <point x="140" y="380" type="curve" smooth="yes"/>
      <point x="175" y="380"/>
      <point x="224" y="397"/>
      <point x="264" y="522" type="curve"/>
      <point x="266" y="522" type="line"/>
      <point x="259" y="490"/>
      <point x="254" y="461"/>
      <point x="254" y="438" type="curve" smooth="yes"/>
      <point x="254" y="402"/>
      <point x="266" y="380"/>
      <point x="300" y="380" type="curve" smooth="yes"/>
      <point x="351" y="380"/>
      <point x="369" y="428"/>
      <point x="378" y="464" type="curve"/>
      <point x="356" y="469" type="line"/>
      <point x="343" y="424"/>
      <point x="330" y="417"/>
      <point x="318" y="417" type="curve" smooth="yes"/>
      <point x="307" y="417"/>
      <point x="307" y="433"/>
      <point x="307" y="451" type="curve" smooth="yes"/>
      <point x="307" y="492"/>
      <point x="322" y="604"/>
      <point x="335" y="706" type="curve"/>
      <point x="308" y="712"/>
      <point x="270" y="716"/>
    </contour>
    <contour>
      <point x="225" y="688" type="curve" smooth="yes"/>
      <point x="245" y="689"/>
      <point x="263" y="685"/>
      <point x="273" y="680" type="curve"/>
      <point x="269" y="566"/>
      <point x="207" y="414"/>
      <point x="154" y="420" type="curve" smooth="yes"/>
      <point x="133" y="423"/>
      <point x="120" y="447"/>
      <point x="120" y="501" type="curve" smooth="yes"/>
      <point x="120" y="596"/>
      <point x="148" y="685"/>
    </contour>
  </outline>
</glyph>
<glyph name="macron" format="2">
  <advance width="358"/>
  <unicode hex="00AF"/>
  <anchor x="170" y="512" name="_top"/>
  <outline>
    <contour>
      <point x="45" y="645" type="line"/>
      <point x="310" y="649" type="line"/>
      <point x="313" y="701" type="line"/>
      <point x="48" y="701" type="line"/>
    </contour>
  </outline>
</glyph>
<glyph name="germandbls" format="2">
  <advance width="650"/>
  <unicode hex="00DF"/>
  <outline>
    <contour>
      <point x="-48" y="-271" type="curve" smooth="yes"/>
      <point x="79" y="-272"/>
      <point x="127" y="-159"/>
      <point x="150" y="-13" type="curve" smooth="yes"/>
      <point x="169" y="101"/>
      <point x="182" y="369"/>
      <point x="194" y="470" type="curve" smooth="yes"/>
      <point x="207" y="625"/>
      <point x="246" y="727"/>
      <point x="370" y="727" type="curve" smooth="yes"/>
      <point x="455" y="727"/>
      <point x="485" y="669"/>
      <point x="485" y="614" type="curve" smooth="yes"/>
      <point x="485" y="565"/>
      <point x="460" y="535"/>
      <point x="434" y="510" type="curve" smooth="yes"/>
      <point x="393" y="471"/>
      <point x="337" y="445"/>
      <point x="337" y="378" type="curve" smooth="yes"/>
      <point x="337" y="317"/>
      <point x="396" y="276"/>
      <point x="452" y="233" type="curve" smooth="yes"/>
      <point x="495" y="200"/>
      <point x="534" y="166"/>
      <point x="534" y="121" type="curve" smooth="yes"/>
      <point x="534" y="61"/>
      <point x="507" y="26"/>
      <point x="446" y="26" type="curve" smooth="yes"/>
      <point x="410" y="26"/>
      <point x="378" y="43"/>
      <point x="368" y="72" type="curve"/>
      <point x="375" y="83"/>
      <point x="376" y="93"/>
      <point x="376" y="103" type="curve" smooth="yes"/>
      <point x="376" y="124"/>
      <point x="362" y="145"/>
      <point x="336" y="145" type="curve" smooth="yes"/>
      <point x="312" y="145"/>
      <point x="292" y="125"/>
      <point x="292" y="96" type="curve" smooth="yes"/>
      <point x="292" y="27"/>
      <point x="367" y="-11"/>
      <point x="448" y="-11" type="curve" smooth="yes"/>
      <point x="549" y="-11"/>
      <point x="616" y="51"/>
      <point x="616" y="135" type="curve" smooth="yes"/>
      <point x="616" y="206"/>
      <point x="563" y="252"/>
      <point x="510" y="290" type="curve" smooth="yes"/>
      <point x="458" y="328"/>
      <point x="407" y="358"/>
      <point x="407" y="397" type="curve" smooth="yes"/>
      <point x="407" y="431"/>
      <point x="433" y="453"/>
      <point x="464" y="477" type="curve" smooth="yes"/>
      <point x="513" y="515"/>
      <point x="561" y="554"/>
      <point x="561" y="624" type="curve" smooth="yes"/>
      <point x="561" y="688"/>
      <point x="511" y="760"/>
      <point x="375" y="760" type="curve"/>
      <point x="206" y="760"/>
      <point x="147" y="649"/>
      <point x="120" y="500" type="curve"/>
      <point x="28" y="500" type="line"/>
      <point x="23" y="457" type="line"/>
      <point x="113" y="458" type="line"/>
      <point x="96" y="332"/>
      <point x="85" y="115"/>
      <point x="75" y="-12" type="curve" smooth="yes"/>
      <point x="63" y="-145"/>
      <point x="44" y="-232"/>
      <point x="-16" y="-232" type="curve" smooth="yes"/>
      <point x="-23" y="-232"/>
      <point x="-39" y="-229"/>
      <point x="-46" y="-224" type="curve"/>
      <point x="-46" y="-197"/>
      <point x="-60" y="-178"/>
      <point x="-84" y="-177" type="curve" smooth="yes"/>
      <point x="-114" y="-176"/>
      <point x="-126" y="-204"/>
      <point x="-126" y="-219" type="curve" smooth="yes"/>
      <point x="-126" y="-253"/>
      <point x="-99" y="-271"/>
    </contour>
  </outline>
</glyph>
<glyph name="ae" format="2">
  <advance width="747"/>
  <unicode hex="00E6"/>
  <outline>
    <contour>
      <point x="554" y="511" type="curve" smooth="yes"/>
      <point x="480" y="511"/>
      <point x="422" y="478"/>
      <point x="381" y="420" type="curve"/>
      <point x="360" y="476"/>
      <point x="321" y="511"/>
      <point x="255" y="511" type="curve" smooth="yes"/>
      <point x="140" y="511"/>
      <point x="63" y="443"/>
      <point x="61" y="385" type="curve" smooth="yes"/>
      <point x="60" y="360"/>
      <point x="77" y="343"/>
      <point x="100" y="342" type="curve" smooth="yes"/>
      <point x="124" y="342"/>
      <point x="141" y="361"/>
      <point x="141" y="381" type="curve" smooth="yes"/>
      <point x="141" y="391"/>
      <point x="140" y="402"/>
      <point x="132" y="412" type="curve"/>
      <point x="143" y="450"/>
      <point x="184" y="477"/>
      <point x="235" y="477" type="curve" smooth="yes"/>
      <point x="322" y="477"/>
      <point x="330" y="399"/>
      <point x="324" y="316" type="curve" smooth="yes"/>
      <point x="321" y="276"/>
      <point x="321" y="265"/>
      <point x="321" y="264" type="curve"/>
      <point x="185" y="270"/>
      <point x="26" y="214"/>
      <point x="26" y="97" type="curve" smooth="yes"/>
      <point x="26" y="32"/>
      <point x="68" y="-11"/>
      <point x="154" y="-11" type="curve" smooth="yes"/>
      <point x="217" y="-11"/>
      <point x="283" y="18"/>
      <point x="340" y="81" type="curve"/>
      <point x="376" y="15"/>
      <point x="423" y="-11"/>
      <point x="502" y="-11" type="curve" smooth="yes"/>
      <point x="570" y="-11"/>
      <point x="649" y="23"/>
      <point x="710" y="141" type="curve"/>
      <point x="678" y="160" type="line"/>
      <point x="639" y="92"/>
      <point x="583" y="39"/>
      <point x="521" y="39" type="curve" smooth="yes"/>
      <point x="429" y="39"/>
      <point x="396" y="117"/>
      <point x="396" y="230" type="curve"/>
      <point x="633" y="256"/>
      <point x="687" y="344"/>
      <point x="687" y="403" type="curve" smooth="yes"/>
      <point x="687" y="428"/>
      <point x="676" y="511"/>
    </contour>
    <contour>
      <point x="318" y="232" type="curve"/>
      <point x="316" y="194"/>
      <point x="319" y="151"/>
      <point x="327" y="114" type="curve"/>
      <point x="285" y="70"/>
      <point x="228" y="40"/>
      <point x="175" y="45" type="curve" smooth="yes"/>
      <point x="145" y="48"/>
      <point x="107" y="64"/>
      <point x="109" y="113" type="curve" smooth="yes"/>
      <point x="112" y="211"/>
      <point x="227" y="229"/>
    </contour>
    <contour>
      <point x="536" y="478" type="curve" smooth="yes"/>
      <point x="565" y="479"/>
      <point x="607" y="466"/>
      <point x="607" y="405" type="curve" smooth="yes"/>
      <point x="607" y="319"/>
      <point x="502" y="276"/>
      <point x="396" y="266" type="curve"/>
      <point x="408" y="387"/>
      <point x="458" y="476"/>
    </contour>
  </outline>
</glyph>
<glyph name="oslash" format="2">
  <advance width="521"/>
  <unicode hex="00F8"/>
  <anchor x="274" y="512" name="top"/>
  <outline>
    <contour>
      <point x="448" y="562" type="line"/>
      <point x="393" y="479" type="line"/>
      <point x="362" y="500"/>
      <point x="326" y="511"/>
      <point x="286" y="511" type="curve" smooth="yes"/>
      <point x="132" y="511"/>
      <point x="39" y="375"/>
      <point x="39" y="213" type="curve" smooth="yes"/>
      <point x="39" y="144"/>
      <point x="58" y="82"/>
      <point x="97" y="41" type="curve"/>
      <point x="34" y="-52" type="line"/>
      <point x="66" y="-77" type="line"/>
      <point x="129" y="15" type="line"/>
      <point x="157" y="-2"/>
      <point x="190" y="-11"/>
      <point x="231" y="-11" type="curve" smooth="yes"/>
      <point x="386" y="-11"/>
      <point x="476" y="131"/>
      <point x="476" y="292" type="curve" smooth="yes"/>
      <point x="476" y="357"/>
      <point x="458" y="409"/>
      <point x="429" y="446" type="curve"/>
      <point x="489" y="533" type="line"/>
    </contour>
    <contour>
      <point x="377" y="372" type="line"/>
      <point x="386" y="336"/>
      <point x="389" y="297"/>
      <point x="388" y="261" type="curve" smooth="yes"/>
      <point x="386" y="164"/>
      <point x="346" y="25"/>
      <point x="240" y="27" type="curve" smooth="yes"/>
      <point x="208" y="27"/>
      <point x="184" y="43"/>
      <point x="167" y="68" type="curve"/>
    </contour>
    <contour>
      <point x="271" y="474" type="curve" smooth="yes"/>
      <point x="311" y="474"/>
      <point x="337" y="454"/>
      <point x="355" y="424" type="curve"/>
      <point x="145" y="112" type="line"/>
      <point x="130" y="153"/>
      <point x="126" y="203"/>
      <point x="127" y="246" type="curve" smooth="yes"/>
      <point x="129" y="374"/>
      <point x="182" y="476"/>
    </contour>
  </outline>
</glyph>
<glyph name="dcroat" format="2">
  <advance width="555"/>
  <unicode hex="0111"/>
  <anchor x="291" y="256" name="center"/>
  <anchor x="559" y="512" name="topright"/>
  <outline>
    <contour>
      <point x="556" y="621" type="line"/>
      <point x="213" y="621" type="line"/>
      <point x="210" y="578" type="line"/>
      <point x="553" y="582" type="line"/>
    </contour>
    <component base="d"/>
  </outline>
</glyph>
<glyph name="Hbar" format="2">
  <advance width="780"/>
  <unicode hex="0126"/>
  <anchor x="372" y="0" name="bottom"/>
  <anchor x="395" y="351" name="center"/>
  <anchor x="410" y="702" name="top"/>
  <outline>
    <contour>
      <point x="753" y="558" type="line"/>
      <point x="48" y="558" type="line"/>
      <point x="46" y="515" type="line"/>
      <point x="751" y="519" type="line"/>
    </contour>
    <component base="H"/>
  </outline>
</glyph>
<glyph name="eng" format="2">
  <advance width="576"/>
  <unicode hex="014B"/>
  <outline>
    <contour>
      <point x="232" y="-271" type="curve" smooth="yes"/>
      <point x="389" y="-271"/>
      <point x="469" y="-112"/>
      <point x="493" y="121" type="curve" smooth="yes"/>
      <point x="501" y="197"/>
      <point x="508" y="266"/>
      <point x="508" y="321" type="curve" smooth="yes"/>
      <point x="508" y="434"/>
      <point x="478" y="511"/>
      <point x="396" y="511" type="curve" smooth="yes"/>
      <point x="331" y="511"/>
      <point x="267" y="465"/>
      <point x="199" y="283" type="curve"/>
      <point x="196" y="283" type="line"/>
      <point x="202" y="315"/>
      <point x="212" y="364"/>
      <point x="212" y="408" type="curve" smooth="yes"/>
      <point x="212" y="463"/>
      <point x="196" y="511"/>
      <point x="137" y="511" type="curve" smooth="yes"/>
      <point x="57" y="511"/>
      <point x="16" y="417"/>
      <point x="7" y="370" type="curve"/>
      <point x="35" y="364" type="line"/>
      <point x="55" y="435"/>
      <point x="86" y="461"/>
      <point x="108" y="461" type="curve" smooth="yes"/>
      <point x="131" y="461"/>
      <point x="135" y="440"/>
      <point x="135" y="416" type="curve" smooth="yes"/>
      <point x="135" y="386"/>
      <point x="134" y="382"/>
      <point x="116" y="226" type="curve" smooth="yes"/>
      <point x="101" y="100"/>
      <point x="96" y="60"/>
      <point x="96" y="26" type="curve" smooth="yes"/>
      <point x="96" y="15"/>
      <point x="96" y="9"/>
      <point x="97" y="0" type="curve"/>
      <point x="181" y="0" type="line"/>
      <point x="180" y="17"/>
      <point x="179" y="33"/>
      <point x="179" y="53" type="curve" smooth="yes"/>
      <point x="179" y="222"/>
      <point x="284" y="464"/>
      <point x="376" y="464" type="curve" smooth="yes"/>
      <point x="414" y="464"/>
      <point x="426" y="423"/>
      <point x="426" y="323" type="curve" smooth="yes"/>
      <point x="426" y="270"/>
      <point x="421" y="203"/>
      <point x="412" y="121" type="curve" smooth="yes"/>
      <point x="389" y="-88"/>
      <point x="333" y="-239"/>
      <point x="234" y="-239" type="curve" smooth="yes"/>
      <point x="202" y="-239"/>
      <point x="180" y="-229"/>
      <point x="165" y="-212" type="curve"/>
      <point x="174" y="-199"/>
      <point x="176" y="-190"/>
      <point x="176" y="-182" type="curve" smooth="yes"/>
      <point x="176" y="-151"/>
      <point x="155" y="-136"/>
      <point x="131" y="-136" type="curve" smooth="yes"/>
      <point x="104" y="-136"/>
      <point x="84" y="-159"/>
      <point x="84" y="-187" type="curve" smooth="yes"/>
      <point x="84" y="-252"/>
      <point x="184" y="-271"/>
    </contour>
  </outline>
</glyph>
<glyph name="jdotless" format="2">
  <advance width="297"/>
  <unicode hex="0237"/>
  <anchor x="121" y="-271" name="bottom"/>
  <anchor x="162" y="512" name="top"/>
  <outline>
    <contour>
      <point x="144" y="511" type="curve" smooth="yes"/>
      <point x="61" y="511"/>
      <point x="26" y="413"/>
      <point x="19" y="366" type="curve"/>
      <point x="47" y="360" type="line"/>
      <point x="65" y="431"/>
      <point x="94" y="458"/>
      <point x="114" y="459" type="curve" smooth="yes"/>
      <point x="137" y="460"/>
      <point x="144" y="436"/>
      <point x="145" y="417" type="curve" smooth="yes"/>
      <point x="148" y="358"/>
      <point x="145" y="274"/>
      <point x="139" y="200" type="curve" smooth="yes"/>
      <point x="136" y="161"/>
      <point x="115" y="-230"/>
      <point x="1" y="-230" type="curve" smooth="yes"/>
      <point x="-6" y="-230"/>
      <point x="-14" y="-228"/>
      <point x="-19" y="-225" type="curve"/>
      <point x="-15" y="-190"/>
      <point x="-34" y="-170"/>
      <point x="-61" y="-170" type="curve" smooth="yes"/>
      <point x="-90" y="-170"/>
      <point x="-104" y="-194"/>
      <point x="-104" y="-217" type="curve" smooth="yes"/>
      <point x="-104" y="-257"/>
      <point x="-62" y="-271"/>
      <point x="-28" y="-271" type="curve" smooth="yes"/>
      <point x="167" y="-271"/>
      <point x="196" y="-12"/>
      <point x="217" y="192" type="curve" smooth="yes"/>
      <point x="225" y="274"/>
      <point x="227" y="354"/>
      <point x="227" y="409" type="curve" smooth="yes"/>
      <point x="227" y="477"/>
      <point x="197" y="511"/>
    </contour>
  </outline>
</glyph>
<glyph name="breve" format="2">
  <advance width="360"/>
  <unicode hex="02D8"/>
  <anchor x="171" y="512" name="_top"/>
  <outline>
    <contour>
      <point x="171" y="608" type="curve" smooth="yes"/>
      <point x="226" y="608"/>
      <point x="282" y="644"/>
      <point x="315" y="724" type="curve"/>
      <point x="292" y="735" type="line"/>
      <point x="267" y="692"/>
      <point x="224" y="662"/>
      <point x="178" y="662" type="curve" smooth="yes"/>
      <point x="133" y="662"/>
      <point x="88" y="694"/>
      <point x="70" y="731" type="curve"/>
      <point x="45" y="722" type="line"/>
      <point x="67" y="643"/>
      <point x="126" y="608"/>
    </contour>
  </outline>
</glyph>
<glyph name="circumflexcomb" format="2">
  <unicode hex="0302"/>
  <anchor x="251" y="512" name="_top"/>
  <anchor x="261" y="705" name="top"/>
  <outline>
    <contour>
      <point x="375" y="563" type="line"/>
      <point x="391" y="588" type="line"/>
      <point x="264" y="688" type="line"/>
      <point x="262" y="688" type="line"/>
      <point x="125" y="589" type="line"/>
      <point x="139" y="564" type="line"/>
      <point x="255" y="624" type="line"/>
    </contour>
  </outline>
</glyph>
<glyph name="hookabovecomb" format="2">
  <unicode hex="0309"/>
  <anchor x="167" y="512" name="_top"/>
  <anchor x="177" y="756" name="top"/>
  <outline>
    <contour>
      <point x="140" y="566" type="curve"/>
      <point x="181" y="566" type="line"/>
      <point x="182" y="577"/>
      <point x="196" y="586"/>
      <point x="213" y="598" type="curve" smooth="yes"/>
      <point x="238" y="616"/>
      <point x="256" y="633"/>
      <point x="258" y="667" type="curve" smooth="yes"/>
      <point x="260" y="707"/>
      <point x="223" y="748"/>
      <point x="153" y="748" type="curve" smooth="yes"/>
      <point x="86" y="748"/>
      <point x="48" y="712"/>
      <point x="45" y="678" type="curve" smooth="yes"/>
      <point x="43" y="651"/>
      <point x="60" y="640"/>
      <point x="76" y="640" type="curve" smooth="yes"/>
      <point x="92" y="640"/>
      <point x="108" y="650"/>
      <point x="108" y="666" type="curve" smooth="yes"/>
      <point x="108" y="672"/>
      <point x="106" y="678"/>
      <point x="103" y="682" type="curve"/>
      <point x="106" y="696"/>
      <point x="128" y="712"/>
      <point x="152" y="712" type="curve" smooth="yes"/>
      <point x="185" y="712"/>
      <point x="204" y="687"/>
      <point x="202" y="660" type="curve" smooth="yes"/>
      <point x="201" y="646"/>
      <point x="194" y="630"/>
      <point x="181" y="619" type="curve" smooth="yes"/>
      <point x="163" y="604"/>
      <point x="141" y="590"/>
    </contour>
  </outline>
</glyph>
<glyph name="commaaccentcomb" format="2">
  <unicode hex="0326"/>
  <anchor x="155" y="0" name="_bottom"/>
  <outline>
    <contour>
      <point x="72" y="-259" type="line"/>
      <point x="124" y="-212"/>
      <point x="160" y="-159"/>
      <point x="164" y="-108" type="curve" smooth="yes"/>
      <point x="166" y="-90"/>
      <point x="163" y="-73"/>
      <point x="157" y="-56" type="curve"/>
      <point x="86" y="-72" type="line"/>
      <point x="93" y="-128"/>
      <point x="98" y="-160"/>
      <point x="47" y="-240" type="curve"/>
    </contour>
  </outline>
</glyph>
<glyph name="E-cy" format="2">
  <advance width="691"/>
  <unicode hex="0404"/>
  <outline>
    <contour>
      <point x="365" y="-16" type="curve" smooth="yes"/>
      <point x="446" y="-16"/>
      <point x="563" y="11"/>
      <point x="655" y="127" type="curve"/>
      <point x="630" y="148" type="line"/>
      <point x="572" y="74"/>
      <point x="480" y="36"/>
      <point x="394" y="36" type="curve" smooth="yes"/>
      <point x="246" y="36"/>
      <point x="132" y="165"/>
      <point x="142" y="354" type="curve" smooth="yes"/>
      <point x="152" y="550"/>
      <point x="273" y="675"/>
      <point x="415" y="675" type="curve" smooth="yes"/>
      <point x="531" y="675"/>
      <point x="606" y="604"/>
      <point x="613" y="479" type="curve"/>
      <point x="649" y="479" type="line"/>
      <point x="661" y="710" type="line"/>
      <point x="607" y="710" type="line"/>
      <point x="609" y="656" type="line"/>
      <point x="608" y="656" type="line"/>
      <point x="549" y="696"/>
      <point x="486" y="716"/>
      <point x="411" y="716" type="curve" smooth="yes"/>
      <point x="178" y="716"/>
      <point x="59" y="527"/>
      <point x="49" y="339" type="curve" smooth="yes"/>
      <point x="39" y="140"/>
      <point x="164" y="-16"/>
    </contour>
    <contour>
      <point x="481" y="259" type="curve"/>
      <point x="514" y="259" type="line"/>
      <point x="525" y="477" type="line"/>
      <point x="492" y="477" type="line"/>
      <point x="488" y="389"/>
      <point x="451" y="382"/>
      <point x="367" y="383" type="curve" smooth="yes"/>
      <point x="124" y="384" type="line"/>
      <point x="123" y="344" type="line"/>
      <point x="366" y="347" type="line" smooth="yes"/>
      <point x="452" y="350"/>
      <point x="485" y="347"/>
    </contour>
  </outline>
</glyph>
<glyph name="Ii-cy" format="2">
  <advance width="783"/>
  <unicode hex="0418"/>
  <anchor x="645" y="0" name="bottomright"/>
  <anchor x="435" y="700" name="top"/>
  <outline>
    <contour>
      <point x="179" y="29" type="line"/>
      <point x="631" y="631" type="line"/>
      <point x="602" y="657" type="line"/>
      <point x="146" y="56" type="line"/>
    </contour>
    <contour>
      <point x="41" y="0" type="line"/>
      <point x="262" y="0" type="line"/>
      <point x="264" y="44" type="line"/>
      <point x="192" y="40" type="line"/>
      <point x="195" y="57"/>
      <point x="197" y="83"/>
      <point x="199" y="119" type="curve"/>
      <point x="222" y="556" type="line"/>
      <point x="226" y="627"/>
      <point x="232" y="664"/>
      <point x="297" y="667" type="curve"/>
      <point x="299" y="700" type="line"/>
      <point x="78" y="700" type="line"/>
      <point x="76" y="656" type="line"/>
      <point x="148" y="660" type="line"/>
      <point x="145" y="640"/>
      <point x="143" y="615"/>
      <point x="141" y="588" type="curve" smooth="yes"/>
      <point x="118" y="156" type="line" smooth="yes"/>
      <point x="114" y="85"/>
      <point x="118" y="36"/>
      <point x="43" y="33" type="curve"/>
    </contour>
    <contour>
      <point x="493" y="0" type="line"/>
      <point x="714" y="0" type="line"/>
      <point x="716" y="44" type="line"/>
      <point x="644" y="40" type="line"/>
      <point x="647" y="57"/>
      <point x="649" y="83"/>
      <point x="651" y="119" type="curve" smooth="yes"/>
      <point x="674" y="557" type="line" smooth="yes"/>
      <point x="678" y="628"/>
      <point x="684" y="664"/>
      <point x="749" y="667" type="curve"/>
      <point x="751" y="700" type="line"/>
      <point x="530" y="700" type="line"/>
      <point x="528" y="656" type="line"/>
      <point x="600" y="660" type="line"/>
      <point x="597" y="640"/>
      <point x="594" y="615"/>
      <point x="593" y="588" type="curve"/>
      <point x="570" y="156" type="line"/>
      <point x="567" y="85"/>
      <point x="570" y="36"/>
      <point x="495" y="33" type="curve"/>
    </contour>
  </outline>
</glyph>
<glyph name="Ef-cy" format="2">
  <advance width="817"/>
  <unicode hex="0424"/>
  <outline>
    <contour>
      <point x="277" y="-44" type="line"/>
      <point x="497" y="-44" type="line"/>
      <point x="499" y="0" type="line"/>
      <point x="475" y="-1"/>
      <point x="451" y="-3"/>
      <point x="427" y="-4" type="curve"/>
      <point x="430" y="13"/>
      <point x="433" y="38"/>
      <point x="434" y="73" type="curve"/>
      <point x="659" y="82"/>
      <point x="766" y="185"/>
      <point x="775" y="350" type="curve" smooth="yes"/>
      <point x="784" y="522"/>
      <point x="675" y="633"/>
      <point x="465" y="647" type="curve"/>
      <point x="469" y="693"/>
      <point x="480" y="724"/>
      <point x="538" y="726" type="curve"/>
      <point x="540" y="759" type="line"/>
      <point x="320" y="759" type="line"/>
      <point x="317" y="715" type="line"/>
      <point x="341" y="716"/>
      <point x="366" y="718"/>
      <point x="390" y="719" type="curve"/>
      <point x="386" y="699"/>
      <point x="384" y="674"/>
      <point x="383" y="647" type="curve"/>
      <point x="163" y="635"/>
      <point x="58" y="510"/>
      <point x="49" y="335" type="curve" smooth="yes"/>
      <point x="41" y="176"/>
      <point x="147" y="85"/>
      <point x="352" y="73" type="curve"/>
      <point x="349" y="24"/>
      <point x="339" y="-9"/>
      <point x="279" y="-11" type="curve"/>
    </contour>
    <contour>
      <point x="354" y="115" type="line"/>
      <point x="207" y="126"/>
      <point x="139" y="194"/>
      <point x="148" y="354" type="curve" smooth="yes"/>
      <point x="156" y="508"/>
      <point x="237" y="594"/>
      <point x="381" y="607" type="curve"/>
    </contour>
    <contour>
      <point x="436" y="113" type="curve"/>
      <point x="463" y="603" type="line"/>
      <point x="615" y="591"/>
      <point x="685" y="499"/>
      <point x="676" y="332" type="curve" smooth="yes"/>
      <point x="668" y="188"/>
      <point x="584" y="121"/>
    </contour>
  </outline>
</glyph>
<glyph name="Ia-cy" format="2">
  <advance width="681"/>
  <unicode hex="042F"/>
  <outline>
    <contour>
      <point x="386" y="0" type="line"/>
      <point x="611" y="0" type="line"/>
      <point x="613" y="44" type="line"/>
      <point x="589" y="43"/>
      <point x="565" y="41"/>
      <point x="541" y="40" type="curve"/>
      <point x="544" y="60"/>
      <point x="547" y="85"/>
      <point x="548" y="112" type="curve" smooth="yes"/>
      <point x="571" y="544" type="line" smooth="yes"/>
      <point x="574" y="617"/>
      <point x="573" y="665"/>
      <point x="646" y="667" type="curve"/>
      <point x="648" y="700" type="line"/>
      <point x="380" y="700" type="line" smooth="yes"/>
      <point x="236" y="700"/>
      <point x="163" y="629"/>
      <point x="157" y="515" type="curve" smooth="yes"/>
      <point x="149" y="376"/>
      <point x="251" y="300"/>
      <point x="375" y="300" type="curve"/>
      <point x="375" y="292" type="line"/>
      <point x="470" y="293" type="line"/>
      <point x="463" y="156" type="line" smooth="yes"/>
      <point x="459" y="85"/>
      <point x="463" y="36"/>
      <point x="388" y="33" type="curve"/>
    </contour>
    <contour>
      <point x="394" y="329" type="curve" smooth="yes"/>
      <point x="311" y="329"/>
      <point x="245" y="400"/>
      <point x="250" y="506" type="curve" smooth="yes"/>
      <point x="256" y="610"/>
      <point x="323" y="662"/>
      <point x="411" y="662" type="curve" smooth="yes"/>
      <point x="424" y="662"/>
      <point x="486" y="663"/>
      <point x="493" y="660" type="curve"/>
      <point x="489" y="643"/>
      <point x="487" y="618"/>
      <point x="485" y="582" type="curve" smooth="yes"/>
      <point x="472" y="332" type="line"/>
      <point x="465" y="330"/>
      <point x="434" y="329"/>
    </contour>
    <contour>
      <point x="9" y="0" type="line"/>
      <point x="123" y="0" type="line"/>
      <point x="153" y="15"/>
      <point x="191" y="67"/>
      <point x="221" y="111" type="curve" smooth="yes"/>
      <point x="302" y="226" type="line" smooth="yes"/>
      <point x="318" y="249"/>
      <point x="345" y="275"/>
      <point x="375" y="292" type="curve"/>
      <point x="376" y="307" type="line"/>
      <point x="321" y="307" type="line"/>
      <point x="284" y="306"/>
      <point x="245" y="281"/>
      <point x="218" y="244" type="curve" smooth="yes"/>
      <point x="134" y="128" type="line" smooth="yes"/>
      <point x="89" y="65"/>
      <point x="67" y="33"/>
      <point x="11" y="33" type="curve"/>
    </contour>
  </outline>
</glyph>
<glyph name="be-cy" format="2">
  <advance width="521"/>
  <unicode hex="0431"/>
  <outline>
    <contour>
      <point x="244" y="-10" type="curve" smooth="yes"/>
      <point x="359" y="-10"/>
      <point x="465" y="94"/>
      <point x="473" y="250" type="curve" smooth="yes"/>
      <point x="481" y="400"/>
      <point x="384" y="481"/>
      <point x="284" y="481" type="curve" smooth="yes"/>
      <point x="183" y="481"/>
      <point x="119" y="430"/>
      <point x="83" y="352" type="curve"/>
      <point x="76" y="352" type="line"/>
      <point x="95" y="481"/>
      <point x="138" y="562"/>
      <point x="252" y="596" type="curve" smooth="yes"/>
      <point x="294" y="608"/>
      <point x="352" y="608"/>
      <point x="402" y="625" type="curve" smooth="yes"/>
      <point x="461" y="645"/>
      <point x="501" y="684"/>
      <point x="522" y="749" type="curve"/>
      <point x="493" y="759" type="line"/>
      <point x="475" y="723"/>
      <point x="442" y="717"/>
      <point x="406" y="708" type="curve" smooth="yes"/>
      <point x="365" y="697"/>
      <point x="300" y="699"/>
      <point x="243" y="678" type="curve" smooth="yes"/>
      <point x="111" y="629"/>
      <point x="51" y="474"/>
      <point x="40" y="299" type="curve" smooth="yes"/>
      <point x="25" y="86"/>
      <point x="120" y="-10"/>
    </contour>
    <contour>
      <point x="240" y="28" type="curve" smooth="yes"/>
      <point x="162" y="28"/>
      <point x="119" y="120"/>
      <point x="126" y="254" type="curve" smooth="yes"/>
      <point x="132" y="353"/>
      <point x="178" y="445"/>
      <point x="269" y="445" type="curve" smooth="yes"/>
      <point x="355" y="445"/>
      <point x="391" y="346"/>
      <point x="385" y="246" type="curve" smooth="yes"/>
      <point x="379" y="121"/>
      <point x="333" y="28"/>
    </contour>
  </outline>
</glyph>
<glyph name="softsign-cy" format="2">
  <advance width="488"/>
  <unicode hex="044C"/>
  <outline>
    <contour>
      <point x="236" y="-11" type="curve" smooth="yes"/>
      <point x="362" y="-11"/>
      <point x="451" y="75"/>
      <point x="453" y="184" type="curve" smooth="yes"/>
      <point x="454" y="273"/>
      <point x="393" y="324"/>
      <point x="308" y="324" type="curve" smooth="yes"/>
      <point x="267" y="324"/>
      <point x="230" y="308"/>
      <point x="188" y="283" type="curve"/>
      <point x="187" y="237" type="line"/>
      <point x="224" y="270"/>
      <point x="260" y="287"/>
      <point x="296" y="287" type="curve" smooth="yes"/>
      <point x="357" y="287"/>
      <point x="372" y="237"/>
      <point x="370" y="164" type="curve" smooth="yes"/>
      <point x="369" y="76"/>
      <point x="328" y="27"/>
      <point x="264" y="27" type="curve" smooth="yes"/>
      <point x="211" y="27"/>
      <point x="171" y="66"/>
      <point x="181" y="137" type="curve" smooth="yes"/>
      <point x="217" y="362" type="line" smooth="yes"/>
      <point x="229" y="438"/>
      <point x="225" y="511"/>
      <point x="150" y="511" type="curve" smooth="yes"/>
      <point x="70" y="511"/>
      <point x="26" y="417"/>
      <point x="15" y="370" type="curve"/>
      <point x="43" y="364" type="line"/>
      <point x="66" y="435"/>
      <point x="98" y="461"/>
      <point x="120" y="461" type="curve" smooth="yes"/>
      <point x="143" y="461"/>
      <point x="146" y="440"/>
      <point x="145" y="416" type="curve" smooth="yes"/>
      <point x="144" y="399"/>
      <point x="140" y="362"/>
      <point x="105" y="146" type="curve" smooth="yes"/>
      <point x="93" y="56"/>
      <point x="134" y="-11"/>
    </contour>
  </outline>
</glyph>
<glyph name="e-cy" format="2">
  <advance width="473"/>
  <unicode hex="0454"/>
  <anchor x="213" y="0" name="bottom"/>
  <anchor x="282" y="510" name="top"/>
  <outline>
    <contour>
      <point x="111" y="234" type="line"/>
      <point x="333" y="236" type="line"/>
      <point x="335" y="275" type="line"/>
      <point x="113" y="275" type="line"/>
    </contour>
    <component base="c"/>
  </outline>
</glyph>
<glyph name="nje-cy" format="2">
  <advance width="764"/>
  <unicode hex="045A"/>
  <outline>
    <contour>
      <point x="512" y="-11" type="curve" smooth="yes"/>
      <point x="638" y="-11"/>
      <point x="727" y="75"/>
      <point x="729" y="184" type="curve" smooth="yes"/>
      <point x="730" y="273"/>
      <point x="668" y="324"/>
      <point x="583" y="324" type="curve" smooth="yes"/>
      <point x="548" y="324"/>
      <point x="515" y="312"/>
      <point x="479" y="292" type="curve"/>
      <point x="487" y="365"/>
      <point x="495" y="441"/>
      <point x="495" y="474" type="curve" smooth="yes"/>
      <point x="495" y="485"/>
      <point x="495" y="491"/>
      <point x="494" y="500" type="curve"/>
      <point x="410" y="500" type="line"/>
      <point x="414" y="414"/>
      <point x="409" y="353"/>
      <point x="398" y="256" type="curve"/>
      <point x="203" y="256" type="line"/>
      <point x="207" y="291"/>
      <point x="211" y="327"/>
      <point x="215" y="362" type="curve" smooth="yes"/>
      <point x="224" y="438"/>
      <point x="221" y="511"/>
      <point x="146" y="511" type="curve" smooth="yes"/>
      <point x="66" y="511"/>
      <point x="23" y="417"/>
      <point x="13" y="370" type="curve"/>
      <point x="41" y="364" type="line"/>
      <point x="63" y="435"/>
      <point x="94" y="461"/>
      <point x="116" y="461" type="curve" smooth="yes"/>
      <point x="139" y="461"/>
      <point x="143" y="440"/>
      <point x="142" y="416" type="curve"/>
      <point x="142" y="386"/>
      <point x="141" y="382"/>
      <point x="120" y="226" type="curve" smooth="yes"/>
      <point x="103" y="100"/>
      <point x="97" y="60"/>
      <point x="96" y="26" type="curve" smooth="yes"/>
      <point x="96" y="15"/>
      <point x="96" y="9"/>
      <point x="97" y="0" type="curve"/>
      <point x="181" y="0" type="line"/>
      <point x="178" y="19"/>
      <point x="177" y="38"/>
      <point x="180" y="63" type="curve" smooth="yes"/>
      <point x="186" y="114"/>
      <point x="192" y="165"/>
      <point x="198" y="216" type="curve"/>
      <point x="393" y="218" type="line"/>
      <point x="381" y="146" type="line" smooth="yes"/>
      <point x="369" y="56"/>
      <point x="410" y="-11"/>
    </contour>
    <contour>
      <point x="540" y="27" type="curve" smooth="yes"/>
      <point x="487" y="27"/>
      <point x="445" y="65"/>
      <point x="457" y="137" type="curve" smooth="yes"/>
      <point x="471" y="227" type="line" smooth="yes"/>
      <point x="472" y="233"/>
      <point x="473" y="240"/>
      <point x="473" y="246" type="curve"/>
      <point x="507" y="273"/>
      <point x="540" y="287"/>
      <point x="572" y="287" type="curve" smooth="yes"/>
      <point x="633" y="287"/>
      <point x="647" y="237"/>
      <point x="646" y="164" type="curve" smooth="yes"/>
      <point x="645" y="76"/>
      <point x="604" y="27"/>
    </contour>
  </outline>
</glyph>
<glyph name="Izhitsa-cy" format="2">
  <advance width="698"/>
  <unicode hex="0474"/>
  <outline>
    <contour>
      <point x="311" y="-11" type="line"/>
      <point x="337" y="-11" type="line"/>
      <point x="443" y="258"/>
      <point x="490" y="383"/>
      <point x="519" y="453" type="curve" smooth="yes"/>
      <point x="560" y="552"/>
      <point x="610" y="677"/>
      <point x="655" y="677" type="curve" smooth="yes"/>
      <point x="662" y="677"/>
      <point x="667" y="674"/>
      <point x="670" y="667" type="curve"/>
      <point x="661" y="662"/>
      <point x="654" y="647"/>
      <point x="654" y="636" type="curve" smooth="yes"/>
      <point x="653" y="617"/>
      <point x="663" y="590"/>
      <point x="703" y="590" type="curve" smooth="yes"/>
      <point x="730" y="591"/>
      <point x="749" y="619"/>
      <point x="749" y="646" type="curve" smooth="yes"/>
      <point x="749" y="692"/>
      <point x="712" y="716"/>
      <point x="675" y="716" type="curve" smooth="yes"/>
      <point x="584" y="716"/>
      <point x="531" y="603"/>
      <point x="489" y="498" type="curve" smooth="yes"/>
      <point x="436" y="365"/>
      <point x="420" y="321"/>
      <point x="349" y="132" type="curve"/>
      <point x="347" y="132" type="line"/>
      <point x="332" y="177"/>
      <point x="305" y="250"/>
      <point x="276" y="325" type="curve" smooth="yes"/>
      <point x="245" y="410"/>
      <point x="222" y="479"/>
      <point x="194" y="558" type="curve" smooth="yes"/>
      <point x="170" y="624"/>
      <point x="183" y="662"/>
      <point x="251" y="666" type="curve"/>
      <point x="253" y="700" type="line"/>
      <point x="25" y="700" type="line"/>
      <point x="23" y="656" type="line"/>
      <point x="79" y="658" type="line"/>
      <point x="81" y="628"/>
      <point x="89" y="590"/>
      <point x="115" y="522" type="curve" smooth="yes"/>
    </contour>
  </outline>
</glyph>
<glyph name="Ghestroke-cy" format="2">
  <advance width="541"/>
  <unicode hex="0492"/>
  <anchor x="181" y="0" name="bottomright"/>
  <anchor x="276" y="350" name="center"/>
  <anchor x="294" y="700" name="top"/>
  <outline>
    <contour>
      <point x="36" y="326" type="line"/>
      <point x="362" y="330" type="line"/>
      <point x="364" y="373" type="line"/>
      <point x="38" y="373" type="line"/>
    </contour>
    <component base="Ge-cy"/>
  </outline>
</glyph>
<glyph name="ghemiddlehook-cy" format="2">
  <advance width="455"/>
  <unicode hex="0495"/>
  <outline>
    <contour>
      <point x="180" y="-229" type="curve" smooth="yes"/>
      <point x="281" y="-229"/>
      <point x="396" y="-75"/>
      <point x="396" y="82" type="curve" smooth="yes"/>
      <point x="396" y="196"/>
      <point x="361" y="283"/>
      <point x="257" y="283" type="curve" smooth="yes"/>
      <point x="221" y="283"/>
      <point x="178" y="267"/>
      <point x="138" y="226" type="curve"/>
      <point x="145" y="348" type="line" smooth="yes"/>
      <point x="149" y="420"/>
      <point x="153" y="463"/>
      <point x="212" y="463" type="curve" smooth="yes"/>
      <point x="320" y="463"/>
      <point x="345" y="436"/>
      <point x="342" y="352" type="curve"/>
      <point x="380" y="352" type="line"/>
      <point x="384" y="500" type="line"/>
      <point x="15" y="500" type="line"/>
      <point x="13" y="459" type="line"/>
      <point x="34" y="460"/>
      <point x="55" y="461"/>
      <point x="76" y="462" type="curve"/>
      <point x="71" y="439"/>
      <point x="70" y="421"/>
      <point x="69" y="394" type="curve" smooth="yes"/>
      <point x="56" y="152" type="line" smooth="yes"/>
      <point x="51" y="80"/>
      <point x="51" y="30"/>
      <point x="-10" y="30" type="curve"/>
      <point x="-12" y="0" type="line"/>
      <point x="185" y="0" type="line"/>
      <point x="187" y="41" type="line"/>
      <point x="124" y="38" type="line"/>
      <point x="129" y="61"/>
      <point x="130" y="79"/>
      <point x="132" y="106" type="curve" smooth="yes"/>
      <point x="135" y="168" type="line"/>
      <point x="163" y="209"/>
      <point x="205" y="229"/>
      <point x="232" y="229" type="curve" smooth="yes"/>
      <point x="290" y="229"/>
      <point x="308" y="168"/>
      <point x="308" y="86" type="curve" smooth="yes"/>
      <point x="308" y="-62"/>
      <point x="257" y="-194"/>
      <point x="172" y="-194" type="curve" smooth="yes"/>
      <point x="163" y="-194"/>
      <point x="154" y="-193"/>
      <point x="143" y="-191" type="curve"/>
      <point x="133" y="-222" type="line"/>
      <point x="149" y="-227"/>
      <point x="164" y="-229"/>
    </contour>
  </outline>
</glyph>
<glyph name="Kastroke-cy" format="2">
  <advance width="680"/>
  <unicode hex="049E"/>
  <anchor x="333" y="0" name="bottom"/>
  <anchor x="381" y="702" name="top"/>
  <outline>
    <contour>
      <point x="47" y="563" type="line"/>
      <point x="353" y="567" type="line"/>
      <point x="355" y="601" type="line"/>
      <point x="49" y="601" type="line"/>
    </contour>
    <component base="K" xOffset="13"/>
  </outline>
</glyph>
<glyph name="Endescender-cy" format="2">
  <advance width="767"/>
  <unicode hex="04A2"/>
  <anchor x="633" y="0" name="bottomright"/>
  <anchor x="395" y="351" name="center"/>
  <anchor x="410" y="702" name="top"/>
  <outline>
    <contour>
      <point x="662" y="-177" type="curve"/>
      <point x="704" y="-177" type="line"/>
      <point x="716" y="45" type="line"/>
      <point x="633" y="40" type="line"/>
      <point x="590" y="0" type="line"/>
      <point x="656" y="0"/>
      <point x="668" y="-63"/>
    </contour>
    <component base="En-cy"/>
  </outline>
</glyph>
<glyph name="enghe-cy" format="2">
  <advance width="728"/>
  <unicode hex="04A5"/>
  <anchor x="564" y="0" name="bottomright"/>
  <outline>
    <contour>
      <point x="663" y="349" type="curve"/>
      <point x="701" y="349" type="line"/>
      <point x="715" y="500" type="line"/>
      <point x="464" y="500" type="line"/>
      <point x="463" y="460" type="line"/>
      <point x="551" y="460" type="line"/>
      <point x="648" y="460"/>
      <point x="672" y="433"/>
    </contour>
    <component base="en-cy"/>
  </outline>
</glyph>
<glyph name="Pemiddlehook-cy" format="2">
  <advance width="1012"/>
  <unicode hex="04A6"/>
  <anchor x="720" y="0" name="bottomright"/>
  <outline>
    <contour>
      <point x="749" y="-223" type="curve" smooth="yes"/>
      <point x="939" y="-218"/>
      <point x="995" y="31"/>
      <point x="995" y="134" type="curve" smooth="yes"/>
      <point x="995" y="321"/>
      <point x="909" y="407"/>
      <point x="769" y="407" type="curve" smooth="yes"/>
      <point x="722" y="407"/>
      <point x="646" y="392"/>
      <point x="606" y="369" type="curve"/>
      <point x="603" y="324" type="line"/>
      <point x="634" y="345"/>
      <point x="692" y="360"/>
      <point x="742" y="360" type="curve" smooth="yes"/>
      <point x="842" y="360"/>
      <point x="900" y="301"/>
      <point x="900" y="127" type="curve" smooth="yes"/>
      <point x="900" y="46"/>
      <point x="878" y="-189"/>
      <point x="736" y="-189" type="curve" smooth="yes"/>
      <point x="722" y="-189"/>
      <point x="695" y="-186"/>
      <point x="680" y="-183" type="curve"/>
      <point x="673" y="-213" type="line"/>
      <point x="699" y="-221"/>
      <point x="725" y="-224"/>
    </contour>
    <component base="Pe-cy"/>
  </outline>
</glyph>
<glyph name="Esdescender-cy" format="2">
  <advance width="686"/>
  <unicode hex="04AA"/>
  <anchor x="353" y="0" name="bottomright"/>
  <anchor x="429" y="702" name="top"/>
  <outline>
    <contour>
      <point x="329" y="-186" type="line" smooth="yes"/>
      <point x="395" y="-186" type="line"/>
      <point x="394" y="0" type="line"/>
      <point x="339" y="-1" type="line"/>
    </contour>
    <component base="Es-cy"/>
  </outline>
</glyph>
<glyph name="Ustraightstroke-cy" format="2">
  <advance width="641"/>
  <unicode hex="04B0"/>
  <anchor x="308" y="0" name="bottom"/>
  <anchor x="359" y="702" name="top"/>
  <anchor x="33" y="700" name="topleft"/>
  <outline>
    <contour>
      <point x="131" y="265" type="line"/>
      <point x="516" y="269" type="line"/>
      <point x="518" y="303" type="line"/>
      <point x="133" y="303" type="line"/>
    </contour>
    <component base="Y"/>
  </outline>
</glyph>
<glyph name="ustraightstroke-cy" format="2">
  <advance width="500"/>
  <unicode hex="04B1"/>
  <anchor x="266" y="0" name="center"/>
  <outline>
    <contour>
      <point x="92" y="0" type="line"/>
      <point x="445" y="0" type="line"/>
      <point x="445" y="39" type="line"/>
      <point x="92" y="43" type="line"/>
    </contour>
    <component base="ustraight-cy"/>
  </outline>
</glyph>
<glyph name="Chedescender-cy" format="2">
  <advance width="690"/>
  <unicode hex="04B6"/>
  <anchor x="502" y="0" name="bottomright"/>
  <anchor x="352" y="350" name="center"/>
  <anchor x="370" y="700" name="top"/>
  <outline>
    <contour>
      <point x="585" y="-177" type="curve"/>
      <point x="627" y="-177" type="line"/>
      <point x="639" y="45" type="line"/>
      <point x="556" y="40" type="line"/>
      <point x="513" y="0" type="line"/>
      <point x="579" y="0"/>
      <point x="591" y="-63"/>
    </contour>
    <component base="Che-cy"/>
  </outline>
</glyph>
<glyph name="Cheverticalstroke-cy" format="2">
  <advance width="694"/>
  <unicode hex="04B8"/>
  <anchor x="502" y="0" name="bottomright"/>
  <anchor x="352" y="350" name="center"/>
  <anchor x="370" y="700" name="top"/>
  <outline>
    <contour>
      <point x="336" y="186" type="line"/>
      <point x="374" y="186" type="line"/>
      <point x="387" y="436" type="line"/>
      <point x="349" y="436" type="line"/>
    </contour>
    <component base="Che-cy"/>
  </outline>
</glyph>
<glyph name="chedescenderabkhasian-cy" format="2">
  <advance width="565"/>
  <unicode hex="04BF"/>
  <anchor x="340" y="0" name="bottom"/>
  <anchor x="395" y="5" name="ogonek"/>
  <anchor x="365" y="512" name="top"/>
  <outline>
    <contour>
      <point x="302" y="-235" type="line"/>
      <point x="383" y="-162"/>
      <point x="400" y="-93"/>
      <point x="362" y="-36" type="curve" smooth="yes"/>
      <point x="353" y="-24"/>
      <point x="347" y="-6"/>
      <point x="347" y="16" type="curve"/>
      <point x="315" y="0" type="line"/>
      <point x="299" y="-47"/>
      <point x="295" y="-73"/>
      <point x="307" y="-101" type="curve" smooth="yes"/>
      <point x="318" y="-123"/>
      <point x="324" y="-151"/>
      <point x="278" y="-212" type="curve"/>
    </contour>
    <component base="cheabkhasian-cy"/>
  </outline>
</glyph>
<glyph name="Emtail-cy" format="2">
  <advance width="917"/>
  <unicode hex="04CD"/>
  <outline>
    <contour>
      <point x="753" y="-178" type="curve"/>
      <point x="794" y="-178" type="line"/>
      <point x="885" y="46" type="line"/>
      <point x="795" y="40" type="line"/>
      <point x="796" y="58"/>
      <point x="797" y="79"/>
      <point x="797" y="103" type="curve"/>
      <point x="794" y="558" type="line" smooth="yes"/>
      <point x="793" y="640"/>
      <point x="818" y="668"/>
      <point x="868" y="667" type="curve"/>
      <point x="870" y="700" type="line"/>
      <point x="726" y="700" type="line"/>
      <point x="515" y="251" type="line"/>
      <point x="499" y="215"/>
      <point x="474" y="158"/>
      <point x="457" y="122" type="curve"/>
      <point x="455" y="122" type="line"/>
      <point x="433" y="179"/>
      <point x="412" y="235"/>
      <point x="392" y="290" type="curve" smooth="yes"/>
      <point x="238" y="700" type="line"/>
      <point x="89" y="700" type="line"/>
      <point x="87" y="657" type="line"/>
      <point x="159" y="660" type="line"/>
      <point x="156" y="632"/>
      <point x="153" y="603"/>
      <point x="150" y="575" type="curve"/>
      <point x="105" y="125" type="line" smooth="yes"/>
      <point x="100" y="76"/>
      <point x="94" y="34"/>
      <point x="32" y="33" type="curve"/>
      <point x="30" y="0" type="line"/>
      <point x="220" y="0" type="line"/>
      <point x="223" y="44" type="line"/>
      <point x="147" y="40" type="line"/>
      <point x="151" y="65"/>
      <point x="154" y="95"/>
      <point x="157" y="125" type="curve" smooth="yes"/>
      <point x="183" y="395" type="line" smooth="yes"/>
      <point x="188" y="453"/>
      <point x="193" y="518"/>
      <point x="196" y="593" type="curve"/>
      <point x="198" y="593" type="line"/>
      <point x="216" y="531"/>
      <point x="223" y="514"/>
      <point x="242" y="462" type="curve" smooth="yes"/>
      <point x="415" y="-10" type="line"/>
      <point x="444" y="-10" type="line"/>
      <point x="682" y="503" type="line"/>
      <point x="717" y="580" type="line"/>
      <point x="719" y="580" type="line"/>
      <point x="718" y="551"/>
      <point x="718" y="523"/>
      <point x="718" y="494" type="curve" smooth="yes"/>
      <point x="718" y="152" type="line" smooth="yes"/>
      <point x="718" y="60"/>
      <point x="704" y="37"/>
      <point x="648" y="33" type="curve"/>
      <point x="646" y="0" type="line"/>
      <point x="762" y="0" type="line" smooth="yes"/>
      <point x="802" y="0"/>
      <point x="797" y="-19"/>
    </contour>
  </outline>
</glyph>
<glyph name="Schwa-cy" format="2">
  <advance width="768"/>
  <unicode hex="04D8"/>
  <anchor x="407" y="700" name="top"/>
  <outline>
    <contour>
      <point x="376" y="-15" type="curve" smooth="yes"/>
      <point x="572" y="-15"/>
      <point x="716" y="158"/>
      <point x="727" y="369" type="curve" smooth="yes"/>
      <point x="736" y="539"/>
      <point x="643" y="716"/>
      <point x="405" y="716" type="curve" smooth="yes"/>
      <point x="335" y="716"/>
      <point x="239" y="702"/>
      <point x="169" y="655" type="curve"/>
      <point x="177" y="709" type="line"/>
      <point x="123" y="709" type="line"/>
      <point x="112" y="487" type="line"/>
      <point x="148" y="487" type="line"/>
      <point x="168" y="606"/>
      <point x="261" y="675"/>
      <point x="376" y="675" type="curve" smooth="yes"/>
      <point x="533" y="675"/>
      <point x="633" y="552"/>
      <point x="630" y="370" type="curve"/>
      <point x="56" y="369" type="line"/>
      <point x="46" y="122"/>
      <point x="146" y="-15"/>
    </contour>
    <contour>
      <point x="372" y="25" type="curve" smooth="yes"/>
      <point x="226" y="25"/>
      <point x="146" y="174"/>
      <point x="151" y="326" type="curve"/>
      <point x="627" y="330" type="line"/>
      <point x="610" y="158"/>
      <point x="512" y="25"/>
    </contour>
  </outline>
</glyph>
<glyph name="Obarred-cy" format="2">
  <advance width="788"/>
  <unicode hex="04E8"/>
  <anchor x="417" y="700" name="top"/>
  <anchor x="381" y="0" name="bottom"/>
  <anchor x="399" y="350" name="center"/>
  <anchor x="696" y="5" name="ogonek"/>
  <anchor x="33" y="700" name="topleft"/>
  <anchor x="612" y="700" name="topright"/>
  <outline>
    <contour>
      <point x="131" y="336" type="line"/>
      <point x="659" y="340" type="line"/>
      <point x="659" y="376" type="line"/>
      <point x="131" y="376" type="line"/>
    </contour>
    <component base="O-cy"/>
  </outline>
</glyph>
<glyph name="obarred-cy" format="2">
  <advance width="521"/>
  <unicode hex="04E9"/>
  <anchor x="274" y="512" name="top"/>
  <anchor x="248" y="0" name="bottom"/>
  <anchor x="261" y="256" name="center"/>
  <anchor x="456" y="5" name="ogonek"/>
  <anchor x="425" y="506" name="topright"/>
  <outline>
    <contour>
      <point x="101" y="242" type="line"/>
      <point x="427" y="246" type="line"/>
      <point x="429" y="280" type="line"/>
      <point x="103" y="280" type="line"/>
    </contour>
    <component base="o-cy"/>
  </outline>
</glyph>
<glyph name="Gedescender-cy" format="2">
  <advance width="541"/>
  <unicode hex="04F6"/>
  <anchor x="181" y="0" name="bottomright"/>
  <anchor x="276" y="350" name="center"/>
  <anchor x="294" y="700" name="top"/>
  <outline>
    <contour>
      <point x="241" y="-177" type="curve"/>
      <point x="283" y="-177" type="line"/>
      <point x="295" y="45" type="line"/>
      <point x="192" y="40" type="line"/>
      <point x="149" y="0" type="line"/>
      <point x="246" y="0"/>
      <point x="247" y="-64"/>
    </contour>
    <component base="Ge-cy"/>
  </outline>
</glyph>
<glyph name="gestrokehook-cy" format="2">
  <advance width="452"/>
  <unicode hex="04FB"/>
  <outline>
    <contour>
      <point x="51" y="-229" type="curve" smooth="yes"/>
      <point x="183" y="-229"/>
      <point x="225" y="-145"/>
      <point x="238" y="0" type="curve"/>
      <point x="160" y="0" type="line"/>
      <point x="148" y="-130"/>
      <point x="116" y="-192"/>
      <point x="35" y="-192" type="curve" smooth="yes"/>
      <point x="19" y="-192"/>
      <point x="-14" y="-187"/>
      <point x="-33" y="-182" type="curve"/>
      <point x="-43" y="-213" type="line"/>
      <point x="-7" y="-224"/>
      <point x="22" y="-229"/>
    </contour>
    <component base="ghestroke-cy"/>
  </outline>
</glyph>
<glyph name="Hahook-cy" format="2">
  <advance width="623"/>
  <unicode hex="04FC"/>
  <outline>
    <contour>
      <point x="436" y="-238" type="line"/>
      <point x="554" y="-203"/>
      <point x="603" y="-142"/>
      <point x="606" y="-69" type="curve" smooth="yes"/>
      <point x="609" y="-3"/>
      <point x="576" y="53"/>
      <point x="544" y="101" type="curve" smooth="yes"/>
      <point x="359" y="368" type="line"/>
      <point x="481" y="528" type="line" smooth="yes"/>
      <point x="527" y="588"/>
      <point x="581" y="658"/>
      <point x="645" y="667" type="curve"/>
      <point x="647" y="700" type="line"/>
      <point x="450" y="700" type="line"/>
      <point x="448" y="656" type="line"/>
      <point x="532" y="660" type="line"/>
      <point x="510" y="641"/>
      <point x="474" y="592"/>
      <point x="438" y="544" type="curve" smooth="yes"/>
      <point x="334" y="405" type="line"/>
      <point x="219" y="584" type="line"/>
      <point x="178" y="657"/>
      <point x="192" y="663"/>
      <point x="290" y="667" type="curve"/>
      <point x="292" y="700" type="line"/>
      <point x="32" y="700" type="line"/>
      <point x="30" y="656" type="line"/>
      <point x="86" y="658" type="line"/>
      <point x="95" y="631"/>
      <point x="103" y="612"/>
      <point x="130" y="569" type="curve"/>
      <point x="284" y="338" type="line"/>
      <point x="145" y="153" type="line" smooth="yes"/>
      <point x="96" y="87"/>
      <point x="66" y="46"/>
      <point x="2" y="33" type="curve"/>
      <point x="0" y="0" type="line"/>
      <point x="196" y="0" type="line"/>
      <point x="198" y="44" type="line"/>
      <point x="115" y="39" type="line"/>
      <point x="149" y="77"/>
      <point x="176" y="117"/>
      <point x="202" y="153" type="curve"/>
      <point x="310" y="301" type="line"/>
      <point x="483" y="44" type="line" smooth="yes"/>
      <point x="516" y="-10"/>
      <point x="528" y="-46"/>
      <point x="528" y="-88" type="curve" smooth="yes"/>
      <point x="528" y="-134"/>
      <point x="498" y="-187"/>
      <point x="429" y="-208" type="curve"/>
    </contour>
  </outline>
</glyph>
<glyph name="hahook-cy" format="2">
  <advance width="507"/>
  <unicode hex="04FD"/>
  <outline>
    <contour>
      <point x="312" y="-239" type="line"/>
      <point x="382" y="-210"/>
      <point x="453" y="-163"/>
      <point x="455" y="-92" type="curve" smooth="yes"/>
      <point x="457" y="-26"/>
      <point x="425" y="11"/>
      <point x="378" y="99" type="curve" smooth="yes"/>
      <point x="354" y="140"/>
      <point x="329" y="195"/>
      <point x="302" y="265" type="curve"/>
      <point x="359" y="406"/>
      <point x="400" y="445"/>
      <point x="428" y="449" type="curve"/>
      <point x="434" y="440"/>
      <point x="444" y="419"/>
      <point x="474" y="419" type="curve" smooth="yes"/>
      <point x="497" y="419"/>
      <point x="515" y="439"/>
      <point x="515" y="462" type="curve" smooth="yes"/>
      <point x="515" y="490"/>
      <point x="496" y="511"/>
      <point x="461" y="511" type="curve" smooth="yes"/>
      <point x="424" y="511"/>
      <point x="355" y="488"/>
      <point x="285" y="314" type="curve"/>
      <point x="271" y="353"/>
      <point x="260" y="386"/>
      <point x="250" y="413" type="curve" smooth="yes"/>
      <point x="227" y="477"/>
      <point x="206" y="511"/>
      <point x="155" y="511" type="curve" smooth="yes"/>
      <point x="65" y="511"/>
      <point x="49" y="404"/>
      <point x="49" y="351" type="curve"/>
      <point x="78" y="352" type="line"/>
      <point x="82" y="430"/>
      <point x="105" y="450"/>
      <point x="129" y="450" type="curve" smooth="yes"/>
      <point x="145" y="450"/>
      <point x="157" y="437"/>
      <point x="170" y="411" type="curve" smooth="yes"/>
      <point x="185" y="379"/>
      <point x="202" y="327"/>
      <point x="230" y="252" type="curve"/>
      <point x="175" y="91"/>
      <point x="131" y="37"/>
      <point x="94" y="45" type="curve"/>
      <point x="93" y="61"/>
      <point x="87" y="86"/>
      <point x="56" y="86" type="curve" smooth="yes"/>
      <point x="34" y="86"/>
      <point x="15" y="68"/>
      <point x="15" y="40" type="curve" smooth="yes"/>
      <point x="15" y="10"/>
      <point x="39" y="-11"/>
      <point x="77" y="-11" type="curve" smooth="yes"/>
      <point x="126" y="-11"/>
      <point x="182" y="6"/>
      <point x="250" y="202" type="curve"/>
      <point x="277" y="134"/>
      <point x="299" y="84"/>
      <point x="317" y="50" type="curve" smooth="yes"/>
      <point x="367" y="-44"/>
      <point x="387" y="-80"/>
      <point x="387" y="-107" type="curve" smooth="yes"/>
      <point x="387" y="-139"/>
      <point x="376" y="-171"/>
      <point x="299" y="-209" type="curve"/>
    </contour>
  </outline>
</glyph>
<glyph name="Elhook-cy" format="2">
  <advance width="691"/>
  <unicode hex="0512"/>
  <outline>
    <contour>
      <point x="375" y="-229" type="curve" smooth="yes"/>
      <point x="506" y="-229"/>
      <point x="544" y="-131"/>
      <point x="552" y="14" type="curve" smooth="yes"/>
      <point x="581" y="554" type="line" smooth="yes"/>
      <point x="585" y="625"/>
      <point x="585" y="664"/>
      <point x="656" y="667" type="curve"/>
      <point x="658" y="700" type="line"/>
      <point x="201" y="700" type="line"/>
      <point x="199" y="656" type="line"/>
      <point x="279" y="657" type="line"/>
      <point x="263" y="222"/>
      <point x="175" y="28"/>
      <point x="103" y="28" type="curve" smooth="yes"/>
      <point x="97" y="28"/>
      <point x="93" y="30"/>
      <point x="89" y="32" type="curve"/>
      <point x="96" y="39"/>
      <point x="99" y="46"/>
      <point x="99" y="58" type="curve" smooth="yes"/>
      <point x="99" y="84"/>
      <point x="82" y="100"/>
      <point x="54" y="100" type="curve" smooth="yes"/>
      <point x="23" y="100"/>
      <point x="3" y="80"/>
      <point x="1" y="48" type="curve" smooth="yes"/>
      <point x="-1" y="4"/>
      <point x="31" y="-16"/>
      <point x="81" y="-16" type="curve" smooth="yes"/>
      <point x="229" y="-16"/>
      <point x="295" y="191"/>
      <point x="325" y="610" type="curve"/>
      <point x="326" y="640"/>
      <point x="330" y="656"/>
      <point x="370" y="658" type="curve"/>
      <point x="507" y="660" type="line"/>
      <point x="503" y="640"/>
      <point x="501" y="615"/>
      <point x="500" y="588" type="curve" smooth="yes"/>
      <point x="468" y="9" type="line" smooth="yes"/>
      <point x="462" y="-105"/>
      <point x="438" y="-192"/>
      <point x="343" y="-192" type="curve" smooth="yes"/>
      <point x="327" y="-192"/>
      <point x="304" y="-188"/>
      <point x="284" y="-182" type="curve"/>
      <point x="273" y="-212" type="line"/>
      <point x="310" y="-223"/>
      <point x="347" y="-229"/>
    </contour>
  </outline>
</glyph>
<glyph name="Shhadescender-cy" format="2">
  <advance width="673"/>
  <unicode hex="0526"/>
  <anchor x="202" y="700" name="bottomright"/>
  <anchor x="352" y="350" name="center"/>
  <anchor x="334" y="0" name="top"/>
  <outline>
    <contour>
      <point x="608" y="-177" type="curve"/>
      <point x="650" y="-177" type="line"/>
      <point x="662" y="45" type="line"/>
      <point x="579" y="40" type="line"/>
      <point x="536" y="0" type="line"/>
      <point x="602" y="0"/>
      <point x="614" y="-63"/>
    </contour>
    <component base="Che-cy" xScale="-1" yScale="-1" xOffset="704" yOffset="700"/>
  </outline>
</glyph>
<glyph name="uni1C85" format="2">
  <advance width="830"/>
  <unicode hex="1C85"/>
  <outline>
    <contour>
      <point x="799" y="500" type="line"/>
      <point x="59" y="500" type="line"/>
      <point x="57" y="459" type="line"/>
      <point x="120" y="462" type="line"/>
      <point x="115" y="439"/>
      <point x="114" y="421"/>
      <point x="111" y="394" type="curve"/>
      <point x="99" y="152" type="line" smooth="yes"/>
      <point x="94" y="80"/>
      <point x="94" y="30"/>
      <point x="33" y="30" type="curve"/>
      <point x="31" y="0" type="line"/>
      <point x="235" y="0" type="line"/>
      <point x="237" y="41" type="line"/>
      <point x="174" y="38" type="line"/>
      <point x="179" y="61"/>
      <point x="180" y="79"/>
      <point x="182" y="106" type="curve" smooth="yes"/>
      <point x="194" y="348" type="line" smooth="yes"/>
      <point x="200" y="420"/>
      <point x="200" y="459"/>
      <point x="261" y="460" type="curve" smooth="yes"/>
      <point x="383" y="462" type="line"/>
      <point x="379" y="439"/>
      <point x="378" y="421"/>
      <point x="376" y="394" type="curve" smooth="yes"/>
      <point x="364" y="152" type="line" smooth="yes"/>
      <point x="358" y="80"/>
      <point x="358" y="30"/>
      <point x="297" y="30" type="curve"/>
      <point x="295" y="0" type="line"/>
      <point x="499" y="0" type="line"/>
      <point x="501" y="41" type="line"/>
      <point x="438" y="38" type="line"/>
      <point x="443" y="61"/>
      <point x="444" y="79"/>
      <point x="446" y="106" type="curve" smooth="yes"/>
      <point x="458" y="348" type="line" smooth="yes"/>
      <point x="464" y="420"/>
      <point x="464" y="459"/>
      <point x="525" y="460" type="curve" smooth="yes"/>
      <point x="656" y="462" type="line"/>
      <point x="651" y="439"/>
      <point x="650" y="421"/>
      <point x="648" y="394" type="curve" smooth="yes"/>
      <point x="636" y="152" type="line" smooth="yes"/>
      <point x="631" y="80"/>
      <point x="631" y="30"/>
      <point x="569" y="30" type="curve"/>
      <point x="567" y="0" type="line"/>
      <point x="772" y="0" type="line"/>
      <point x="774" y="41" type="line"/>
      <point x="711" y="38" type="line"/>
      <point x="716" y="61"/>
      <point x="717" y="79"/>
      <point x="719" y="106" type="curve" smooth="yes"/>
      <point x="731" y="348" type="line" smooth="yes"/>
      <point x="736" y="420"/>
      <point x="736" y="470"/>
      <point x="797" y="470" type="curve"/>
    </contour>
  </outline>
</glyph>
<glyph name="Germandbls" format="2">
  <advance width="669"/>
  <unicode hex="1E9E"/>
  <outline>
    <contour>
      <point x="388" y="-16" type="curve" smooth="yes"/>
      <point x="502" y="-16"/>
      <point x="613" y="57"/>
      <point x="621" y="200" type="curve" smooth="yes"/>
      <point x="627" y="315"/>
      <point x="556" y="404"/>
      <point x="406" y="409" type="curve"/>
      <point x="622" y="665" type="line"/>
      <point x="623" y="700" type="line"/>
      <point x="357" y="700" type="line" smooth="yes"/>
      <point x="182" y="700"/>
      <point x="119" y="579"/>
      <point x="113" y="450" type="curve" smooth="yes"/>
      <point x="98" y="152" type="line" smooth="yes"/>
      <point x="94" y="80"/>
      <point x="94" y="30"/>
      <point x="33" y="30" type="curve"/>
      <point x="31" y="0" type="line"/>
      <point x="172" y="0" type="line"/>
      <point x="179" y="63"/>
      <point x="180" y="79"/>
      <point x="182" y="106" type="curve"/>
      <point x="200" y="468" type="line" smooth="yes"/>
      <point x="206" y="587"/>
      <point x="255" y="658"/>
      <point x="355" y="660" type="curve" smooth="yes"/>
      <point x="554" y="663" type="line"/>
      <point x="514" y="639"/>
      <point x="490" y="615"/>
      <point x="463" y="583" type="curve" smooth="yes"/>
      <point x="317" y="409" type="line"/>
      <point x="314" y="367" type="line"/>
      <point x="339" y="368" type="line"/>
      <point x="469" y="362"/>
      <point x="527" y="310"/>
      <point x="522" y="202" type="curve" smooth="yes"/>
      <point x="516" y="89"/>
      <point x="448" y="32"/>
      <point x="367" y="32" type="curve" smooth="yes"/>
      <point x="329" y="32"/>
      <point x="286" y="45"/>
      <point x="261" y="67" type="curve"/>
      <point x="233" y="46" type="line"/>
      <point x="273" y="4"/>
      <point x="328" y="-16"/>
    </contour>
  </outline>
</glyph>
<glyph name="endash" format="2">
  <advance width="583"/>
  <unicode hex="2013"/>
  <outline>
    <contour>
      <point x="521" y="353" type="line"/>
      <point x="66" y="353" type="line"/>
      <point x="63" y="287" type="line"/>
      <point x="518" y="291" type="line"/>
    </contour>
  </outline>
</glyph>
<glyph name="daggerdbl" format="2">
  <advance width="534"/>
  <unicode hex="2021"/>
  <outline>
    <contour>
      <point x="236" y="-271" type="curve" smooth="yes"/>
      <point x="273" y="-271"/>
      <point x="286" y="-230"/>
      <point x="285" y="-198" type="curve" smooth="yes"/>
      <point x="282" y="-124"/>
      <point x="270" y="-25"/>
      <point x="262" y="36" type="curve"/>
      <point x="310" y="25"/>
      <point x="359" y="16"/>
      <point x="408" y="10" type="curve" smooth="yes"/>
      <point x="440" y="6"/>
      <point x="481" y="7"/>
      <point x="483" y="43" type="curve" smooth="yes"/>
      <point x="485" y="81"/>
      <point x="444" y="82"/>
      <point x="412" y="78" type="curve" smooth="yes"/>
      <point x="362" y="71"/>
      <point x="312" y="62"/>
      <point x="263" y="52" type="curve"/>
      <point x="282" y="128"/>
      <point x="298" y="215"/>
      <point x="315" y="251" type="curve"/>
      <point x="302" y="288"/>
      <point x="294" y="369"/>
      <point x="283" y="445" type="curve"/>
      <point x="331" y="435"/>
      <point x="381" y="425"/>
      <point x="429" y="419" type="curve" smooth="yes"/>
      <point x="461" y="415"/>
      <point x="502" y="416"/>
      <point x="504" y="453" type="curve" smooth="yes"/>
      <point x="506" y="490"/>
      <point x="465" y="491"/>
      <point x="433" y="487" type="curve" smooth="yes"/>
      <point x="384" y="480"/>
      <point x="333" y="471"/>
      <point x="283" y="461" type="curve"/>
      <point x="297" y="521"/>
      <point x="319" y="613"/>
      <point x="330" y="687" type="curve" smooth="yes"/>
      <point x="335" y="719"/>
      <point x="328" y="760"/>
      <point x="291" y="760" type="curve" smooth="yes"/>
      <point x="254" y="760"/>
      <point x="241" y="719"/>
      <point x="242" y="687" type="curve" smooth="yes"/>
      <point x="245" y="613"/>
      <point x="257" y="521"/>
      <point x="265" y="461" type="curve"/>
      <point x="217" y="471"/>
      <point x="168" y="480"/>
      <point x="119" y="487" type="curve" smooth="yes"/>
      <point x="87" y="491"/>
      <point x="46" y="490"/>
      <point x="44" y="453" type="curve" smooth="yes"/>
      <point x="42" y="416"/>
      <point x="83" y="415"/>
      <point x="115" y="419" type="curve" smooth="yes"/>
      <point x="165" y="425"/>
      <point x="214" y="435"/>
      <point x="264" y="445" type="curve"/>
      <point x="245" y="369"/>
      <point x="229" y="288"/>
      <point x="213" y="251" type="curve"/>
      <point x="226" y="214"/>
      <point x="232" y="128"/>
      <point x="244" y="52" type="curve"/>
      <point x="196" y="62"/>
      <point x="146" y="71"/>
      <point x="98" y="78" type="curve" smooth="yes"/>
      <point x="66" y="82"/>
      <point x="25" y="81"/>
      <point x="23" y="43" type="curve" smooth="yes"/>
      <point x="21" y="7"/>
      <point x="62" y="6"/>
      <point x="94" y="10" type="curve" smooth="yes"/>
      <point x="143" y="16"/>
      <point x="193" y="25"/>
      <point x="243" y="36" type="curve"/>
      <point x="229" y="-25"/>
      <point x="208" y="-124"/>
      <point x="197" y="-198" type="curve" smooth="yes"/>
      <point x="192" y="-230"/>
      <point x="199" y="-271"/>
    </contour>
  </outline>
</glyph>
<glyph name="tenge" format="2">
  <advance width="636"/>
  <unicode hex="20B8"/>
  <outline>
    <contour>
      <point x="194" y="0" type="line"/>
      <point x="425" y="0" type="line"/>
      <point x="427" y="44" type="line"/>
      <point x="399" y="43"/>
      <point x="372" y="41"/>
      <point x="344" y="40" type="curve"/>
      <point x="347" y="57"/>
      <point x="349" y="83"/>
      <point x="351" y="119" type="curve" smooth="yes"/>
      <point x="377" y="553" type="line"/>
      <point x="462" y="554" type="line" smooth="yes"/>
      <point x="565" y="555"/>
      <point x="587" y="497"/>
      <point x="583" y="379" type="curve"/>
      <point x="621" y="379" type="line"/>
      <point x="626" y="590" type="line"/>
      <point x="47" y="590" type="line"/>
      <point x="30" y="379" type="line"/>
      <point x="67" y="379" type="line"/>
      <point x="73" y="497"/>
      <point x="107" y="552"/>
      <point x="191" y="552" type="curve" smooth="yes"/>
      <point x="294" y="553" type="line"/>
      <point x="270" y="156" type="line" smooth="yes"/>
      <point x="266" y="88"/>
      <point x="261" y="36"/>
      <point x="196" y="33" type="curve"/>
    </contour>
    <contour>
      <point x="52" y="662" type="line"/>
      <point x="631" y="666" type="line"/>
      <point x="633" y="700" type="line"/>
      <point x="54" y="700" type="line"/>
    </contour>
  </outline>
</glyph>
<glyph name="trademark" format="2">
  <advance width="1040"/>
  <unicode hex="2122"/>
  <outline>
    <contour>
      <point x="684" y="299" type="curve"/>
      <point x="726" y="299" type="line"/>
      <point x="851" y="559" type="line" smooth="yes"/>
      <point x="860" y="579"/>
      <point x="869" y="599"/>
      <point x="877" y="622" type="curve"/>
      <point x="878" y="622" type="line"/>
      <point x="877" y="598"/>
      <point x="876" y="576"/>
      <point x="876" y="554" type="curve" smooth="yes"/>
      <point x="879" y="405" type="line" smooth="yes"/>
      <point x="879" y="363"/>
      <point x="869" y="333"/>
      <point x="829" y="332" type="curve"/>
      <point x="827" y="304" type="line"/>
      <point x="985" y="304" type="line"/>
      <point x="987" y="339" type="line"/>
      <point x="971" y="338"/>
      <point x="954" y="337"/>
      <point x="938" y="336" type="curve"/>
      <point x="939" y="350"/>
      <point x="940" y="371"/>
      <point x="939" y="386" type="curve" smooth="yes"/>
      <point x="936" y="596" type="line" smooth="yes"/>
      <point x="935" y="638"/>
      <point x="942" y="666"/>
      <point x="981" y="667" type="curve"/>
      <point x="983" y="700" type="line"/>
      <point x="873" y="700" type="line"/>
      <point x="833" y="611"/>
      <point x="790" y="534"/>
      <point x="753" y="452" type="curve" smooth="yes"/>
      <point x="744" y="432"/>
      <point x="728" y="399"/>
      <point x="717" y="376" type="curve"/>
      <point x="716" y="376" type="line"/>
      <point x="702" y="414"/>
      <point x="689" y="454"/>
      <point x="678" y="486" type="curve" smooth="yes"/>
      <point x="606" y="700" type="line"/>
      <point x="482" y="700" type="line"/>
      <point x="480" y="660" type="line"/>
      <point x="494" y="661"/>
      <point x="509" y="662"/>
      <point x="523" y="663" type="curve"/>
      <point x="521" y="656"/>
      <point x="521" y="646"/>
      <point x="519" y="629" type="curve" smooth="yes"/>
      <point x="497" y="403" type="line" smooth="yes"/>
      <point x="493" y="362"/>
      <point x="484" y="334"/>
      <point x="444" y="333" type="curve"/>
      <point x="442" y="305" type="line"/>
      <point x="583" y="305" type="line"/>
      <point x="585" y="339" type="line"/>
      <point x="569" y="338"/>
      <point x="552" y="337"/>
      <point x="536" y="336" type="curve"/>
      <point x="540" y="347"/>
      <point x="541" y="361"/>
      <point x="543" y="378" type="curve"/>
      <point x="561" y="570" type="line"/>
      <point x="562" y="591"/>
      <point x="564" y="612"/>
      <point x="565" y="633" type="curve"/>
      <point x="566" y="633" type="line"/>
      <point x="600" y="522"/>
      <point x="642" y="410"/>
    </contour>
    <contour>
      <point x="165" y="303" type="line"/>
      <point x="321" y="303" type="line"/>
      <point x="323" y="339" type="line"/>
      <point x="308" y="338"/>
      <point x="292" y="338"/>
      <point x="277" y="337" type="curve"/>
      <point x="279" y="348"/>
      <point x="279" y="363"/>
      <point x="280" y="378" type="curve" smooth="yes"/>
      <point x="295" y="663" type="line"/>
      <point x="339" y="663" type="line" smooth="yes"/>
      <point x="397" y="664"/>
      <point x="410" y="633"/>
      <point x="409" y="568" type="curve"/>
      <point x="439" y="568" type="line"/>
      <point x="442" y="700" type="line"/>
      <point x="86" y="700" type="line"/>
      <point x="76" y="568" type="line"/>
      <point x="106" y="568" type="line"/>
      <point x="109" y="628"/>
      <point x="127" y="661"/>
      <point x="168" y="662" type="curve" smooth="yes"/>
      <point x="230" y="662" type="line"/>
      <point x="216" y="393" type="line" smooth="yes"/>
      <point x="214" y="357"/>
      <point x="205" y="331"/>
      <point x="167" y="331" type="curve"/>
    </contour>
  </outline>
</glyph>
<glyph name="notequal" format="2">
  <advance width="530"/>
  <unicode hex="2260"/>
  <outline>
    <contour>
      <point x="128" y="120" type="line"/>
      <point x="474" y="600" type="line"/>
      <point x="439" y="624" type="line"/>
      <point x="95" y="144" type="line"/>
    </contour>
    <contour>
      <point x="53" y="465" type="line"/>
      <point x="50" y="415" type="line"/>
      <point x="496" y="415" type="line"/>
      <point x="499" y="465" type="line"/>
    </contour>
    <contour>
      <point x="45" y="315" type="line"/>
      <point x="42" y="265" type="line"/>
      <point x="488" y="265" type="line"/>
      <point x="491" y="315" type="line"/>
    </contour>
  </outline>
</glyph>
<glyph name="lessequal" format="2">
  <advance width="530"/>
  <unicode hex="2264"/>
  <outline>
    <contour>
      <point x="30" y="56" type="line"/>
      <point x="27" y="0" type="line"/>
      <point x="472" y="0" type="line"/>
      <point x="475" y="52" type="line"/>
    </contour>
    <component base="less" yOffset="27"/>
  </outline>
</glyph>
<glyph name="De-cy.loclBGR" format="2">
  <advance width="658"/>
  <outline>
    <contour>
      <point x="-24" y="-180" type="line"/>
      <point x="18" y="-180" type="line"/>
      <point x="23" y="-65"/>
      <point x="44" y="0"/>
      <point x="110" y="0" type="curve" smooth="yes"/>
      <point x="518" y="0" type="line" smooth="yes"/>
      <point x="583" y="0"/>
      <point x="597" y="-65"/>
      <point x="591" y="-180" type="curve"/>
      <point x="633" y="-180" type="line"/>
      <point x="644" y="44" type="line"/>
      <point x="561" y="43" type="line"/>
      <point x="564" y="73"/>
      <point x="549" y="122"/>
      <point x="540" y="150" type="curve" smooth="yes"/>
      <point x="357" y="719" type="line"/>
      <point x="335" y="719" type="line"/>
      <point x="120" y="158" type="line" smooth="yes"/>
      <point x="88" y="75"/>
      <point x="67" y="38"/>
      <point x="-12" y="37" type="curve"/>
    </contour>
    <contour>
      <point x="121" y="39" type="line"/>
      <point x="134" y="60"/>
      <point x="143" y="78"/>
      <point x="155" y="107" type="curve"/>
      <point x="280" y="468" type="line"/>
      <point x="294" y="505"/>
      <point x="307" y="543"/>
      <point x="321" y="580" type="curve"/>
      <point x="323" y="580" type="line"/>
      <point x="336" y="542"/>
      <point x="349" y="499"/>
      <point x="363" y="452" type="curve"/>
      <point x="460" y="128" type="line"/>
      <point x="472" y="89"/>
      <point x="479" y="41"/>
      <point x="409" y="41" type="curve" smooth="yes"/>
    </contour>
  </outline>
</glyph>
<glyph name="Esdescender-cy.loclBSH" format="2">
  <advance width="686"/>
  <anchor x="353" y="0" name="bottomright"/>
  <anchor x="429" y="702" name="top"/>
  <outline>
    <contour>
      <point x="356" y="-205" type="curve" smooth="yes"/>
      <point x="401" y="-205"/>
      <point x="430" y="-168"/>
      <point x="432" y="-124" type="curve" smooth="yes"/>
      <point x="434" y="-79"/>
      <point x="404" y="-17"/>
      <point x="345" y="20" type="curve"/>
      <point x="301" y="11" type="line"/>
      <point x="340" y="-5"/>
      <point x="384" y="-64"/>
      <point x="378" y="-92" type="curve"/>
      <point x="370" y="-89"/>
      <point x="362" y="-87"/>
      <point x="349" y="-87" type="curve" smooth="yes"/>
      <point x="320" y="-87"/>
      <point x="291" y="-108"/>
      <point x="289" y="-149" type="curve" smooth="yes"/>
      <point x="287" y="-184"/>
      <point x="319" y="-205"/>
    </contour>
    <component base="Es-cy"/>
  </outline>
</glyph>
<glyph name="__descender-cy" format="2">
  <advance width="171"/>
  <anchor x="-13" y="0" name="_bottomright"/>
  <outline>
    <contour>
      <point x="61" y="-176" type="curve"/>
      <point x="98" y="-176" type="line"/>
      <point x="109" y="42" type="line"/>
      <point x="83" y="41" type="line"/>
      <point x="-11" y="36" type="line"/>
      <point x="-13" y="0" type="line"/>
      <point x="53" y="0"/>
      <point x="66" y="-77"/>
    </contour>
  </outline>
</glyph>
<glyph name="breve.case" format="2">
  <advance width="293"/>
  <anchor x="164" y="700" name="_top"/>
  <outline>
    <contour>
      <point x="167.65" y="794" type="curve" smooth="yes"/>
      <point x="230.9" y="794"/>
      <point x="295.3" y="830"/>
      <point x="333.25" y="910" type="curve"/>
      <point x="306.8" y="921" type="line"/>
      <point x="278.05" y="878"/>
      <point x="228.6" y="848"/>
      <point x="175.7" y="848" type="curve" smooth="yes"/>
      <point x="123.95" y="848"/>
      <point x="72.2" y="880"/>
      <point x="51.5" y="917" type="curve"/>
      <point x="22.75" y="908" type="line"/>
      <point x="48.05" y="829"/>
      <point x="115.9" y="794"/>
    </contour>
  </outline>
</glyph>
<glyph name="brevecomb_hookabovecomb" format="2">
  <outline>
    <contour>
      <point x="161" y="577" type="curve" smooth="yes"/>
      <point x="213" y="577"/>
      <point x="266" y="607"/>
      <point x="297" y="673" type="curve"/>
      <point x="276" y="682" type="line"/>
      <point x="252" y="647"/>
      <point x="211" y="622"/>
      <point x="167" y="622" type="curve" smooth="yes"/>
      <point x="124" y="622"/>
      <point x="82" y="648"/>
      <point x="64" y="679" type="curve"/>
      <point x="41" y="671" type="line"/>
      <point x="62" y="606"/>
      <point x="118" y="577"/>
    </contour>
    <contour>
      <point x="150" y="672" type="curve"/>
      <point x="191" y="672" type="line"/>
      <point x="192" y="683"/>
      <point x="206" y="692"/>
      <point x="223" y="704" type="curve" smooth="yes"/>
      <point x="248" y="722"/>
      <point x="266" y="739"/>
      <point x="268" y="773" type="curve" smooth="yes"/>
      <point x="270" y="813"/>
      <point x="233" y="854"/>
      <point x="163" y="854" type="curve" smooth="yes"/>
      <point x="96" y="854"/>
      <point x="58" y="818"/>
      <point x="55" y="784" type="curve" smooth="yes"/>
      <point x="53" y="757"/>
      <point x="70" y="746"/>
      <point x="86" y="746" type="curve" smooth="yes"/>
      <point x="102" y="746"/>
      <point x="118" y="756"/>
      <point x="118" y="772" type="curve" smooth="yes"/>
      <point x="118" y="778"/>
      <point x="116" y="784"/>
      <point x="113" y="788" type="curve"/>
      <point x="116" y="802"/>
      <point x="138" y="818"/>
      <point x="162" y="818" type="curve" smooth="yes"/>
      <point x="195" y="818"/>
      <point x="214" y="793"/>
      <point x="212" y="766" type="curve" smooth="yes"/>
      <point x="211" y="752"/>
      <point x="204" y="736"/>
      <point x="191" y="725" type="curve" smooth="yes"/>
      <point x="173" y="710"/>
      <point x="151" y="696"/>
    </contour>
  </outline>
</glyph>
<glyph name="che-cy.loclBGR" format="2">
  <advance width="580"/>
  <outline>
    <contour>
      <point x="244" y="157" type="curve" smooth="yes"/>
      <point x="292" y="157"/>
      <point x="347" y="176"/>
      <point x="405" y="238" type="curve"/>
      <point x="394" y="254" type="line"/>
      <point x="356" y="225"/>
      <point x="309" y="204"/>
      <point x="268" y="204" type="curve" smooth="yes"/>
      <point x="224" y="204"/>
      <point x="212" y="229"/>
      <point x="216" y="281" type="curve" smooth="yes"/>
      <point x="218" y="314"/>
      <point x="229" y="374"/>
      <point x="232" y="409" type="curve" smooth="yes"/>
      <point x="237" y="475"/>
      <point x="221" y="511"/>
      <point x="167" y="511" type="curve" smooth="yes"/>
      <point x="78" y="511"/>
      <point x="29" y="417"/>
      <point x="18" y="371" type="curve"/>
      <point x="46" y="364" type="line"/>
      <point x="70" y="436"/>
      <point x="103" y="461"/>
      <point x="127" y="461" type="curve" smooth="yes"/>
      <point x="149" y="461"/>
      <point x="150" y="439"/>
      <point x="148" y="415" type="curve" smooth="yes"/>
      <point x="146" y="380"/>
      <point x="136" y="322"/>
      <point x="134" y="293" type="curve" smooth="yes"/>
      <point x="128" y="209"/>
      <point x="164" y="157"/>
    </contour>
    <contour>
      <point x="439" y="-11" type="curve" smooth="yes"/>
      <point x="520" y="-11"/>
      <point x="561" y="83"/>
      <point x="569" y="130" type="curve"/>
      <point x="542" y="136" type="line"/>
      <point x="521" y="65"/>
      <point x="490" y="40"/>
      <point x="468" y="40" type="curve" smooth="yes"/>
      <point x="447" y="40"/>
      <point x="441" y="60"/>
      <point x="441" y="84" type="curve" smooth="yes"/>
      <point x="441" y="146"/>
      <point x="480" y="398"/>
      <point x="480" y="474" type="curve" smooth="yes"/>
      <point x="480" y="485"/>
      <point x="480" y="491"/>
      <point x="479" y="500" type="curve"/>
      <point x="396" y="500" type="line"/>
      <point x="396" y="480"/>
      <point x="397" y="462"/>
      <point x="397" y="442" type="curve" smooth="yes"/>
      <point x="397" y="323"/>
      <point x="362" y="147"/>
      <point x="362" y="79" type="curve"/>
      <point x="362" y="25"/>
      <point x="385" y="-11"/>
    </contour>
  </outline>
</glyph>
<glyph name="circumflexcomb_gravecomb.case" format="2">
  <outline>
    <contour>
      <point x="375" y="563" type="line"/>
      <point x="391" y="588" type="line"/>
      <point x="264" y="688" type="line"/>
      <point x="262" y="688" type="line"/>
      <point x="125" y="589" type="line"/>
      <point x="139" y="564" type="line"/>
      <point x="255" y="624" type="line"/>
    </contour>
    <contour>
      <point x="366.456" y="672.369" type="line"/>
      <point x="388.274" y="690.551" type="line"/>
      <point x="317.365" y="810.552" type="line" smooth="yes"/>
      <point x="292.819" y="852.371"/>
      <point x="266.455" y="837.825"/>
      <point x="261" y="832.37" type="curve" smooth="yes"/>
      <point x="253.728" y="825.098"/>
      <point x="241" y="803.279"/>
      <point x="272.819" y="769.643" type="curve" smooth="yes"/>
    </contour>
  </outline>
</glyph>
<glyph name="esdescender-cy.loclBSH" format="2">
  <advance width="473"/>
  <anchor x="240" y="0" name="bottomright"/>
  <anchor x="282" y="510" name="top"/>
  <outline>
    <contour>
      <point x="224" y="-181" type="curve" smooth="yes"/>
      <point x="264" y="-181"/>
      <point x="286" y="-151"/>
      <point x="288" y="-114" type="curve" smooth="yes"/>
      <point x="290" y="-76"/>
      <point x="268" y="-24"/>
      <point x="218" y="7" type="curve"/>
      <point x="178" y="-1" type="line"/>
      <point x="210" y="-17"/>
      <point x="247" y="-60"/>
      <point x="242" y="-86" type="curve"/>
      <point x="236" y="-84"/>
      <point x="229" y="-82"/>
      <point x="218" y="-82" type="curve" smooth="yes"/>
      <point x="196" y="-82"/>
      <point x="173" y="-98"/>
      <point x="171" y="-133" type="curve" smooth="yes"/>
      <point x="169" y="-162"/>
      <point x="195" y="-181"/>
    </contour>
    <component base="es-cy"/>
  </outline>
</glyph>
<glyph name="hungarumlautcomb.case" format="2">
  <anchor x="148" y="700" name="_top"/>
  <anchor x="231" y="958" name="top"/>
  <outline>
    <contour>
      <point x="208" y="793" type="line"/>
      <point x="350" y="873" type="line" smooth="yes"/>
      <point x="390" y="895"/>
      <point x="394" y="916"/>
      <point x="385" y="932" type="curve" smooth="yes"/>
      <point x="374" y="952"/>
      <point x="351" y="957"/>
      <point x="311" y="921" type="curve" smooth="yes"/>
      <point x="192" y="817" type="line"/>
    </contour>
    <contour>
      <point x="89" y="791" type="line"/>
      <point x="185" y="885" type="line" smooth="yes"/>
      <point x="215" y="915"/>
      <point x="218" y="933"/>
      <point x="204" y="948" type="curve" smooth="yes"/>
      <point x="187" y="967"/>
      <point x="160" y="958"/>
      <point x="136" y="921" type="curve" smooth="yes"/>
      <point x="65" y="811" type="line"/>
    </contour>
  </outline>
</glyph>
<glyph name="tail-cy.case" format="2">
  <advance width="171"/>
  <anchor x="-13" y="0" name="_bottomright"/>
  <outline>
    <contour>
      <point x="-56" y="-178" type="curve"/>
      <point x="-15" y="-178" type="line"/>
      <point x="76" y="46" type="line"/>
      <point x="-16" y="40" type="line"/>
      <point x="-47" y="0" type="line"/>
      <point x="-7" y="0"/>
      <point x="-12" y="-19"/>
    </contour>
  </outline>
</glyph>
<glyph name="tail-cy" format="2">
  <advance width="161"/>
  <anchor x="0" y="0" name="_bottomright"/>
  <outline>
    <contour>
      <point x="-6" y="-178" type="curve"/>
      <point x="32" y="-178" type="line"/>
      <point x="113" y="45" type="line"/>
      <point x="27" y="38" type="line"/>
      <point x="0" y="0" type="line"/>
      <point x="33" y="0"/>
      <point x="38" y="-24"/>
    </contour>
  </outline>
</glyph>
<glyph name="verticalbar-cy.case" format="2">
  <advance width="238"/>
  <anchor x="122" y="304" name="_center"/>
  <outline>
    <contour>
      <point x="96" y="178" type="line"/>
      <point x="134" y="178" type="line"/>
      <point x="147" y="428" type="line"/>
      <point x="109" y="428" type="line"/>
    </contour>
  </outline>
</glyph>
